<svg width="619" height="462" viewBox="0 0 619 462" fill="none" xmlns="http://www.w3.org/2000/svg">
<path d="M619 405.321H0V405.631H619V405.321Z" fill="#E6E6E6"/>
<path d="M154.527 424.052H113.524V424.362H154.527V424.052Z" fill="#E6E6E6"/>
<path d="M100.55 424.052H76.793V424.362H100.55V424.052Z" fill="#E6E6E6"/>
<path d="M260.661 428.608H236.903V428.917H260.661V428.608Z" fill="#E6E6E6"/>
<path d="M384.535 435.516H331.065V435.825H384.535V435.516Z" fill="#E6E6E6"/>
<path d="M320.047 435.516H312.211V435.825H320.047V435.516Z" fill="#E6E6E6"/>
<path d="M561.247 428.608H445.271V428.917H561.247V428.608Z" fill="#E6E6E6"/>
<path d="M293.406 350.106H54.3603C52.4876 350.103 50.6928 349.357 49.3698 348.032C48.0468 346.706 47.3037 344.91 47.3037 343.037V7.00708C47.32 5.14516 48.0703 3.36486 49.3915 2.05287C50.7128 0.740891 52.4983 0.00318957 54.3603 0H293.406C295.281 0 297.079 0.744766 298.404 2.07046C299.73 3.39615 300.475 5.19417 300.475 7.06898V343.037C300.475 344.912 299.73 346.71 298.404 348.036C297.079 349.362 295.281 350.106 293.406 350.106ZM54.3603 0.247601C52.5697 0.25088 50.8536 0.964483 49.5886 2.23178C48.3237 3.49907 47.6132 5.2165 47.6132 7.00708V343.037C47.6132 344.828 48.3237 346.545 49.5886 347.813C50.8536 349.08 52.5697 349.794 54.3603 349.797H293.406C295.197 349.794 296.915 349.08 298.182 347.813C299.449 346.547 300.162 344.829 300.165 343.037V7.00708C300.162 5.21536 299.449 3.49796 298.182 2.23102C296.915 0.96408 295.197 0.250873 293.406 0.247601H54.3603Z" fill="#E6E6E6"/>
<path d="M561.198 350.106H322.14C320.266 350.103 318.47 349.357 317.145 348.032C315.82 346.707 315.075 344.911 315.071 343.037V7.00708C315.091 5.14403 315.844 3.36374 317.167 2.0521C318.49 0.740458 320.277 0.00315478 322.14 0H561.198C563.058 0.00644317 564.84 0.745584 566.159 2.05722C567.477 3.36885 568.226 5.1473 568.242 7.00708V343.037C568.242 344.908 567.501 346.702 566.181 348.027C564.86 349.352 563.069 350.1 561.198 350.106ZM322.14 0.247601C320.349 0.250873 318.631 0.96408 317.364 2.23102C316.097 3.49796 315.384 5.21536 315.381 7.00708V343.037C315.384 344.829 316.097 346.547 317.364 347.813C318.631 349.08 320.349 349.794 322.14 349.797H561.198C562.99 349.794 564.707 349.08 565.974 347.813C567.241 346.547 567.954 344.829 567.958 343.037V7.00708C567.954 5.21536 567.241 3.49796 565.974 2.23102C564.707 0.96408 562.99 0.250873 561.198 0.247601H322.14Z" fill="#E6E6E6"/>
<path d="M331.041 299.571H303.817V407.562H331.041V299.571Z" fill="#E0E0E0"/>
<path d="M325.867 407.562H331.042V392.855H320.444L325.867 407.562Z" fill="#FAFAFA"/>
<path d="M211.747 299.571H184.523V407.562H211.747V299.571Z" fill="#E0E0E0"/>
<path d="M331.041 299.571H207.241V398.537H331.041V299.571Z" fill="#FAFAFA"/>
<path d="M326.547 304.437V330.62H211.698V304.437H326.51M326.993 303.954H211.252V331.091H327.03V303.954H326.993Z" fill="#E0E0E0"/>
<path d="M212.404 407.562H207.241V392.855H217.826L212.404 407.562Z" fill="#FAFAFA"/>
<path d="M266.405 317.522C266.405 318.063 266.566 318.592 266.866 319.042C267.167 319.492 267.594 319.843 268.094 320.05C268.594 320.257 269.144 320.311 269.675 320.206C270.206 320.1 270.693 319.839 271.076 319.457C271.459 319.074 271.719 318.587 271.825 318.056C271.93 317.525 271.876 316.975 271.669 316.475C271.462 315.975 271.111 315.548 270.661 315.247C270.211 314.947 269.682 314.786 269.141 314.786C268.416 314.786 267.72 315.074 267.207 315.588C266.694 316.101 266.405 316.797 266.405 317.522Z" fill="#E6E6E6"/>
<path d="M326.547 335.956V362.14H211.698V335.956H326.51M326.993 335.486H211.252V362.623H327.03V335.498L326.993 335.486Z" fill="#E0E0E0"/>
<path d="M266.405 349.116C266.405 349.657 266.566 350.186 266.866 350.636C267.167 351.086 267.594 351.437 268.094 351.644C268.594 351.851 269.144 351.905 269.675 351.799C270.206 351.694 270.693 351.433 271.076 351.051C271.459 350.668 271.719 350.18 271.825 349.65C271.93 349.119 271.876 348.569 271.669 348.069C271.462 347.569 271.111 347.142 270.661 346.841C270.211 346.54 269.682 346.38 269.141 346.38C268.416 346.38 267.72 346.668 267.207 347.181C266.694 347.694 266.405 348.39 266.405 349.116Z" fill="#E6E6E6"/>
<path d="M326.547 367.488V393.684H211.698V367.488H326.51M326.993 367.005H211.252V394.154H327.03V367.005H326.993Z" fill="#E0E0E0"/>
<path d="M266.405 380.586C266.408 381.127 266.57 381.654 266.872 382.103C267.175 382.551 267.603 382.9 268.103 383.105C268.603 383.31 269.153 383.362 269.683 383.255C270.213 383.148 270.699 382.887 271.08 382.504C271.462 382.121 271.721 381.633 271.826 381.103C271.93 380.572 271.875 380.023 271.668 379.524C271.46 379.024 271.11 378.598 270.66 378.298C270.21 377.998 269.682 377.838 269.141 377.838C268.781 377.838 268.424 377.909 268.091 378.047C267.759 378.185 267.456 378.388 267.202 378.643C266.948 378.899 266.747 379.202 266.61 379.535C266.473 379.868 266.404 380.226 266.405 380.586Z" fill="#E6E6E6"/>
<path d="M195.121 236.854H167.897V407.574H195.121V236.854Z" fill="#E0E0E0"/>
<path d="M189.946 407.562H195.121V392.855H184.536L189.946 407.562Z" fill="#FAFAFA"/>
<path d="M93.3828 236.854H66.1592V407.574H93.3828V236.854Z" fill="#E0E0E0"/>
<path d="M195.121 236.854H88.8633V398.549H195.121V236.854Z" fill="#FAFAFA"/>
<path d="M190.54 241.41V278.018H93.4439V241.41H190.54ZM191.11 240.853H92.8496V278.55H191.085V240.865L191.11 240.853Z" fill="#E0E0E0"/>
<path d="M190.54 282.487V379.583H144.289V282.487H190.54ZM191.11 281.917H143.731V380.153H191.11V281.917Z" fill="#E0E0E0"/>
<path d="M139.696 282.487V379.583H93.4439V282.487H139.696ZM140.253 281.917H92.8496V380.153H140.228V281.917H140.253Z" fill="#E0E0E0"/>
<path d="M94.0381 407.562H88.8633V392.855H99.4606L94.0381 407.562Z" fill="#FAFAFA"/>
<path d="M139.25 259.732C139.248 260.276 139.407 260.809 139.707 261.263C140.008 261.716 140.436 262.07 140.938 262.28C141.44 262.49 141.993 262.546 142.527 262.442C143.061 262.337 143.552 262.076 143.937 261.693C144.323 261.309 144.586 260.819 144.693 260.286C144.8 259.752 144.746 259.199 144.539 258.696C144.331 258.193 143.979 257.763 143.527 257.46C143.074 257.158 142.542 256.996 141.998 256.996C141.272 256.996 140.574 257.284 140.059 257.797C139.544 258.31 139.253 259.006 139.25 259.732Z" fill="#E6E6E6"/>
<path d="M149.056 328.726C149.056 329.27 149.217 329.802 149.52 330.254C149.822 330.707 150.252 331.059 150.755 331.266C151.258 331.474 151.811 331.528 152.345 331.421C152.878 331.314 153.368 331.051 153.752 330.665C154.136 330.279 154.396 329.789 154.501 329.255C154.606 328.721 154.55 328.168 154.34 327.666C154.13 327.164 153.776 326.735 153.322 326.435C152.868 326.134 152.336 325.975 151.792 325.978C151.431 325.978 151.075 326.049 150.742 326.187C150.409 326.325 150.107 326.528 149.853 326.783C149.598 327.039 149.397 327.342 149.26 327.675C149.124 328.009 149.054 328.366 149.056 328.726Z" fill="#E6E6E6"/>
<path d="M129.458 328.726C129.46 329.267 129.623 329.794 129.925 330.243C130.227 330.691 130.655 331.04 131.156 331.245C131.656 331.45 132.205 331.503 132.735 331.396C133.265 331.289 133.752 331.027 134.133 330.644C134.514 330.261 134.774 329.773 134.878 329.243C134.983 328.713 134.928 328.163 134.721 327.664C134.513 327.165 134.162 326.738 133.713 326.438C133.263 326.138 132.735 325.978 132.194 325.978C131.834 325.978 131.477 326.049 131.144 326.187C130.811 326.325 130.509 326.528 130.255 326.783C130.001 327.039 129.799 327.342 129.663 327.675C129.526 328.009 129.456 328.366 129.458 328.726Z" fill="#E6E6E6"/>
<path d="M126.363 189.253H114.887C115.944 194.82 116.61 200.454 116.88 206.115C116.88 212.305 108.14 236.854 120.594 236.854C133.048 236.854 124.308 212.367 124.308 206.115C124.598 200.453 125.285 194.819 126.363 189.253Z" fill="#E0E0E0"/>
<path d="M82.6982 214.36V221.788C82.7113 225.77 84.2989 229.585 87.1146 232.401C89.9304 235.216 93.7456 236.804 97.7276 236.817H105.156C109.138 236.804 112.953 235.216 115.768 232.401C118.584 229.585 120.172 225.77 120.185 221.788V214.36H82.6982Z" fill="#F5F5F5"/>
<path d="M242.239 283.824C242.239 292.49 251.933 299.571 263.78 299.571H274.477C286.324 299.571 296.018 292.49 296.018 283.824H242.239Z" fill="#E0E0E0"/>
<path d="M525.667 271.122C519.18 276.421 510.217 286.114 502.021 299.757C496.549 308.844 493.256 318.327 491.808 330.93C491.808 316.693 491.894 301.403 491.944 286.968C493.59 283.254 497.354 274.687 500.053 267.928C509.053 245.359 512.433 239.801 520.517 220.339C531.325 194.341 542.392 163.565 539.223 166.028C532.761 171.042 508.001 217.405 505.327 224.041C498.038 241.749 493.532 260.479 491.969 279.565C491.969 265.947 492.068 253.567 492.117 243.96C492.29 212.626 492.823 202.512 493.083 199.392C494.086 197.808 495.262 195.963 495.955 194.973C501.774 186.554 504.014 179.399 509.486 166.845C517.261 149.08 523.946 117.523 521.99 119.108C513.844 125.744 507.431 139.981 498.988 158.142C490.545 176.304 492.959 186.74 491.288 202.24C490.941 205.285 490.669 216.774 490.471 232.682C488.292 215.721 484.182 204.555 476.692 194.403C467.481 181.912 458.567 173.481 452.031 169.074C445.494 164.666 463.321 195.344 471.839 208.69C479.428 220.624 486.422 231.135 490.409 241.497C490.198 263.075 490.099 290.385 490.099 315.777C488.143 304.214 484.949 291.747 480.69 282.103C475.565 270.515 467.691 252.738 461.415 246.709C459.917 245.26 467.976 279.837 473.151 289.023C478.326 298.209 482.126 306.888 485.382 312.1C486.138 313.338 488.663 318.005 490.099 320.704C490.099 351.741 490.273 379.125 490.545 388.447H491.882C491.795 386.046 491.771 370.249 491.808 349.351C495.039 338.011 502.417 325.062 508.508 313.251C515.144 300.463 532.154 265.86 525.667 271.122Z" fill="#E0E0E0"/>
<path d="M510.601 407.562H471.802L468.868 369.531H513.535L510.601 407.562Z" fill="#F0F0F0"/>
<path d="M516.42 373.963H465.971L464.535 361.125H517.868L516.42 373.963Z" fill="#F5F5F5"/>
<path d="M153.834 25.379H84.4443V101.578H153.834V25.379Z" fill="#E0E0E0"/>
<path d="M161.348 25.379H89.668V101.578H161.348V25.379Z" fill="#F5F5F5"/>
<path d="M155.345 95.5736V31.3833L95.6731 31.3833V95.5736H155.345Z" fill="white"/>
<path d="M140.872 79.9995V46.9326H110.133V79.9995H140.872Z" fill="#F5F5F5"/>
<path d="M507.642 34.2554H443.18V105.044H507.642V34.2554Z" fill="#E0E0E0"/>
<path d="M514.625 34.2554H448.045V105.044H514.625V34.2554Z" fill="#F5F5F5"/>
<path d="M509.053 99.4609V39.8389H453.627V99.4609H509.053Z" fill="white"/>
<path d="M481.334 86.9448C490.886 86.9448 498.629 79.2016 498.629 69.6499C498.629 60.0982 490.886 52.355 481.334 52.355C471.782 52.355 464.039 60.0982 464.039 69.6499C464.039 79.2016 471.782 86.9448 481.334 86.9448Z" fill="#F5F5F5"/>
<path d="M225.922 70.8136H174.446V127.341H225.922V70.8136Z" fill="#E0E0E0"/>
<path d="M231.493 70.8136H178.321V127.341H231.493V70.8136Z" fill="#F5F5F5"/>
<path d="M227.037 122.884V75.2704H182.779V122.884H227.037Z" fill="white"/>
<path d="M204.913 87.0314L192.806 108.003H217.021L204.913 87.0314Z" fill="#F5F5F5"/>
<path d="M309.5 461.229C442.068 461.229 549.536 454.955 549.536 447.215C549.536 439.475 442.068 433.201 309.5 433.201C176.932 433.201 69.4639 439.475 69.4639 447.215C69.4639 454.955 176.932 461.229 309.5 461.229Z" fill="#F5F5F5"/>
<path d="M432.371 134.236L420.09 129.284C420.09 129.284 403.885 158.835 399.242 160.333C392.928 162.364 379.855 168.009 372.105 168.999C371.053 170.237 369.332 174.088 369.493 175.486C379.905 178.965 402.783 174.348 407.685 170.708C418.84 162.45 432.371 134.236 432.371 134.236Z" fill="#E58A7B"/>
<path d="M436.148 127.514C438.438 135.97 426.033 152.98 426.033 152.98L409.778 143.868C409.778 143.868 412.824 136.873 416.538 129.755C422.493 118.254 433.536 117.87 436.148 127.514Z" fill="#2D1600"/>
<path opacity="0.2" d="M436.148 127.514C438.438 135.97 426.033 152.98 426.033 152.98L409.778 143.868C409.778 143.868 412.824 136.873 416.538 129.755C422.493 118.254 433.536 117.87 436.148 127.514Z" fill="black"/>
<path opacity="0.2" d="M416.228 147.508L422.628 151.098L423.755 131.451C420.028 134.311 417.404 142.927 416.228 147.508Z" fill="black"/>
<path d="M425.451 121.151C425.451 121.151 412.798 149.303 420.177 201.72H470.031C470.823 194.069 468.199 156.731 477.694 120.68C472.225 119.611 466.692 118.904 461.13 118.563C454.075 118.154 447.002 118.154 439.948 118.563C435.057 119.06 430.211 119.925 425.451 121.151Z" fill="#2D1600"/>
<path opacity="0.2" d="M425.451 121.151C425.451 121.151 412.798 149.303 420.177 201.72H470.031C470.823 194.069 468.199 156.731 477.694 120.68C472.225 119.611 466.692 118.904 461.13 118.563C454.075 118.154 447.002 118.154 439.948 118.563C435.057 119.06 430.211 119.925 425.451 121.151Z" fill="black"/>
<g style="mix-blend-mode:multiply">
<path d="M413.888 448.329C413.814 449.666 432.718 450.743 456.104 450.743C479.49 450.743 498.53 449.666 498.604 448.329C498.679 446.992 479.787 445.928 456.388 445.928C432.99 445.928 413.975 447.005 413.888 448.329Z" fill="#E8ECF1"/>
</g>
<path d="M447.167 413.198L438.324 416.621L445.941 436.298L454.783 432.875L447.167 413.198Z" fill="#E58A7B"/>
<path d="M486.595 438.809H477.273L473.856 417.231H483.179L486.595 438.809Z" fill="#E58A7B"/>
<path d="M476.63 437.732H487.103C487.285 437.733 487.461 437.798 487.599 437.915C487.737 438.033 487.829 438.196 487.858 438.376L489.208 446.658C489.236 446.866 489.22 447.077 489.159 447.278C489.099 447.479 488.995 447.664 488.857 447.822C488.718 447.979 488.547 448.105 488.356 448.19C488.164 448.276 487.957 448.319 487.747 448.317C484.095 448.255 482.337 448.032 477.732 448.032C474.897 448.032 469.066 448.329 465.129 448.329C461.192 448.329 460.932 444.467 462.554 444.108C469.833 442.535 472.656 440.394 475.082 438.314C475.51 437.938 476.06 437.731 476.63 437.732Z" fill="#263238"/>
<path d="M445.68 434.538L455.584 431.641C455.761 431.591 455.949 431.603 456.118 431.675C456.287 431.747 456.426 431.875 456.513 432.037L460.227 439.465C460.313 439.654 460.357 439.859 460.356 440.066C460.355 440.273 460.308 440.478 460.22 440.665C460.131 440.853 460.003 441.018 459.844 441.151C459.685 441.284 459.499 441.38 459.298 441.434C455.696 442.424 453.282 443.031 448.775 444.343C445.668 445.247 442.499 446.72 439.428 447.698C437.299 448.379 432.297 448.404 429.71 448.404C425.885 448.404 425.03 444.368 426.677 444.182C430.824 443.724 431.381 443.934 433.672 442.783C437.419 441.145 440.816 438.799 443.675 435.875C444.214 435.261 444.906 434.799 445.68 434.538Z" fill="#263238"/>
<path d="M373.666 168.95L363.415 164.654L359.193 176.019C363.395 176.659 367.669 176.659 371.87 176.019L373.666 168.95Z" fill="#E58A7B"/>
<path d="M355.789 164.357L355.517 171.909L359.193 175.994L363.415 164.629L355.789 164.357Z" fill="#E58A7B"/>
<path d="M448.38 414.869L439.51 418.294L443.438 428.468L452.308 425.044L448.38 414.869Z" fill="#CF6F64"/>
<path d="M483.179 417.231H473.856L475.627 428.36H484.949L483.179 417.231Z" fill="#CF6F64"/>
<path opacity="0.2" d="M418.593 187.545C418.778 189.785 418.989 192.076 419.261 194.428L456.327 182.395C462.115 180.679 467.146 177.041 470.589 172.082C470.737 168.777 470.923 165.298 471.208 161.67C471.332 159.912 471.48 158.105 471.641 156.273C471.802 154.44 472.025 152.41 472.26 150.454L418.593 187.545Z" fill="black"/>
<path d="M430.7 146.938L429.462 146.79C430.192 140.6 434.81 135.722 439.675 135.846V137.084C435.417 136.997 431.356 141.392 430.7 146.938Z" fill="white"/>
<path d="M437.298 158.365H437.088V157.127C441.347 157.288 445.345 152.843 446.002 147.31L447.24 147.458C446.583 153.512 442.114 158.365 437.298 158.365Z" fill="white"/>
<path d="M460.437 94.707C458.691 101.528 456.636 114.02 461.13 118.563C461.13 118.563 457.985 125.484 445.321 125.484C433.745 125.484 439.948 118.563 439.948 118.563C447.648 116.756 447.784 111.135 446.769 105.812L460.437 94.707Z" fill="#E58A7B"/>
<path d="M454.866 99.2381L446.782 105.812C447.033 107.035 447.178 108.278 447.215 109.526C449.58 111.878 454.322 105.923 454.804 102.878C455.05 101.679 455.071 100.445 454.866 99.2381Z" fill="#CF6F64"/>
<path d="M432.88 94.6203C433.442 95.5953 434.2 96.4438 435.105 97.1126C436.01 97.7815 437.044 98.2564 438.141 98.5077C441.112 99.1638 442.598 96.4278 441.781 93.6794C441.05 91.2034 438.611 87.8732 435.591 88.4427C434.944 88.576 434.338 88.8624 433.824 89.2779C433.311 89.6934 432.904 90.2259 432.639 90.8309C432.373 91.4358 432.256 92.0956 432.298 92.7549C432.34 93.4142 432.54 94.0539 432.88 94.6203Z" fill="#CF6F64"/>
<path d="M437.794 72.7944C433.164 74.9114 431.529 93.3081 437.348 96.0317C443.167 98.7553 446.559 68.7709 437.794 72.7944Z" fill="#263238"/>
<path d="M461.848 84.444C460.734 93.6795 460.61 99.1143 455.658 103.843C454.124 105.413 452.186 106.528 450.057 107.065C447.929 107.602 445.694 107.54 443.599 106.887C441.503 106.234 439.629 105.014 438.183 103.363C436.737 101.712 435.776 99.693 435.405 97.5296C433.907 89.235 435.974 75.5304 445.234 71.8535C447.18 70.9953 449.32 70.6731 451.432 70.9204C453.544 71.1677 455.552 71.9753 457.246 73.2597C458.941 74.5441 460.262 76.2584 461.071 78.225C461.88 80.1915 462.149 82.3387 461.848 84.444Z" fill="#E58A7B"/>
<path d="M446.633 77.5731C453.492 75.8275 458.531 74.639 456.723 80.3462C454.334 87.9723 451.462 95.3507 455.312 95.685C457.664 95.8955 468.063 91.4882 466.738 87.019C465.587 83.1317 470.452 82.067 471.319 80.0986C474.525 72.9677 465.352 73.9086 466.986 69.5756C468.62 65.2426 459.558 58.2603 454.606 61.7391C446.547 67.3596 432.718 67.2729 439.985 58.0251C445.197 51.4265 435.9 52.7759 435.9 52.7759C435.9 52.7759 441.52 56.1062 432.062 61.2562C422.059 66.753 431.233 81.5223 446.633 77.5731Z" fill="#263238"/>
<path d="M465.489 94.6203C464.135 96.5795 462.1 97.9651 459.781 98.5077C456.724 99.1638 455.547 96.4278 456.699 93.6794C457.726 91.2034 460.549 87.8732 463.471 88.4427C466.392 89.0122 467.061 92.1938 465.489 94.6203Z" fill="#E58A7B"/>
<path d="M420.177 201.72C420.177 201.72 411.808 276.619 411.152 305.043C410.483 334.607 439.515 426.85 439.515 426.85L454.371 420.66C454.371 420.66 437.039 336.377 439.515 307.346C442.139 275.69 452.984 201.769 452.984 201.769L420.177 201.72Z" fill="#2D1600"/>
<path opacity="0.2" d="M440.976 222.283C434.303 236.124 438.797 263.496 442.412 279.714C443.786 268.262 445.421 255.833 446.968 244.332C446.819 226.653 445.445 212.998 440.976 222.283Z" fill="black"/>
<path d="M453.714 415.758C453.789 415.758 455.472 420.487 455.472 420.487L438.338 427.692L435.64 422.666L453.714 415.758Z" fill="#2D1600"/>
<path d="M437.868 201.72C437.868 201.72 444.269 272.954 448.503 299.633C453.157 328.862 471.406 426.206 471.406 426.206H488.478C488.478 426.206 478.252 331.227 476.32 302.282C474.216 270.887 470.031 201.72 470.031 201.72H437.868Z" fill="#2D1600"/>
<path d="M488.738 421.762C488.812 421.762 489.307 426.528 489.307 426.528H470.539L469.202 421.056L488.738 421.762Z" fill="#2D1600"/>
<path opacity="0.2" d="M482.201 416.117C482.163 416.117 482.125 416.103 482.095 416.078C482.066 416.053 482.046 416.019 482.04 415.98C481.941 415.114 472.718 329.32 470.985 303.322C469.103 275.121 465.315 212.565 465.278 211.933C465.276 211.913 465.279 211.892 465.285 211.873C465.292 211.853 465.303 211.835 465.317 211.82C465.331 211.805 465.348 211.793 465.367 211.785C465.385 211.776 465.406 211.772 465.426 211.772C465.467 211.772 465.506 211.787 465.536 211.815C465.566 211.843 465.584 211.88 465.587 211.921C465.587 212.552 469.413 275.059 471.295 303.31C473.028 329.308 482.251 415.039 482.337 415.968C482.341 415.988 482.34 416.009 482.335 416.03C482.33 416.05 482.321 416.069 482.308 416.085C482.295 416.101 482.279 416.115 482.261 416.124C482.242 416.134 482.222 416.14 482.201 416.141V416.117Z" fill="black"/>
<path d="M447.685 87.019C447.685 87.7742 447.215 88.3808 446.719 88.3808C446.224 88.3808 445.865 87.7742 445.915 87.019C445.964 86.2638 446.385 85.6572 446.88 85.6572C447.376 85.6572 447.735 86.2762 447.685 87.019Z" fill="#263238"/>
<path d="M439.193 87.019C439.193 87.7742 438.71 88.3808 438.227 88.3808C437.744 88.3808 437.373 87.7742 437.41 87.019C437.447 86.2638 437.893 85.6572 438.388 85.6572C438.883 85.6572 439.242 86.2762 439.193 87.019Z" fill="#263238"/>
<path d="M441.867 87.4028C440.833 89.7088 439.502 91.869 437.905 93.828C439.143 95.066 441.458 94.4965 441.458 94.4965L441.867 87.4028Z" fill="#DF5753"/>
<path d="M442.09 97.6534C442.061 97.6535 442.033 97.6477 442.006 97.6363C441.98 97.625 441.956 97.6083 441.936 97.5875C441.917 97.5666 441.901 97.5419 441.892 97.5149C441.882 97.4879 441.878 97.4592 441.879 97.4306C441.882 97.3704 441.909 97.3137 441.952 97.2722C441.996 97.2307 442.054 97.2077 442.114 97.2078C443.061 97.2143 443.998 97.0086 444.855 96.6059C445.712 96.2031 446.467 95.6135 447.066 94.8803C447.109 94.8429 447.164 94.8222 447.221 94.8222C447.278 94.8222 447.333 94.8429 447.376 94.8803C447.416 94.9218 447.438 94.9773 447.438 95.0351C447.438 95.0928 447.416 95.1483 447.376 95.1898C446.735 95.969 445.927 96.5948 445.012 97.0211C444.097 97.4474 443.099 97.6635 442.09 97.6534Z" fill="#263238"/>
<path d="M449.196 84.7411C449.137 84.7715 449.071 84.7874 449.004 84.7874C448.938 84.7874 448.872 84.7715 448.812 84.7411C448.349 84.4417 447.822 84.2554 447.274 84.1974C446.725 84.1393 446.171 84.2111 445.656 84.4068C445.605 84.432 445.551 84.4468 445.494 84.4504C445.438 84.454 445.382 84.4464 445.329 84.4279C445.276 84.4094 445.227 84.3805 445.185 84.3429C445.144 84.3053 445.11 84.2596 445.086 84.2087C445.04 84.0986 445.039 83.9748 445.083 83.8638C445.127 83.7528 445.212 83.6634 445.321 83.6145C445.969 83.3502 446.67 83.2459 447.366 83.3106C448.062 83.3752 448.733 83.6069 449.32 83.9859C449.367 84.0182 449.408 84.0595 449.439 84.1076C449.471 84.1557 449.492 84.2095 449.503 84.2659C449.513 84.3224 449.512 84.3803 449.5 84.4364C449.488 84.4924 449.464 84.5455 449.431 84.5925C449.369 84.6635 449.287 84.7151 449.196 84.7411Z" fill="#263238"/>
<path d="M435.912 82.2651C435.846 82.2491 435.786 82.2148 435.738 82.1661C435.697 82.1257 435.665 82.0776 435.642 82.0244C435.62 81.9713 435.608 81.9142 435.608 81.8566C435.608 81.7989 435.62 81.7419 435.642 81.6887C435.665 81.6356 435.697 81.5874 435.738 81.5471C436.213 81.0149 436.804 80.5995 437.465 80.3332C438.127 80.0669 438.841 79.957 439.551 80.012C439.608 80.0207 439.663 80.0411 439.712 80.0719C439.76 80.1026 439.802 80.143 439.835 80.1906C439.867 80.2382 439.89 80.2919 439.901 80.3485C439.912 80.4051 439.911 80.4633 439.898 80.5195C439.872 80.6342 439.804 80.7352 439.708 80.8036C439.613 80.8719 439.495 80.903 439.378 80.8909C438.816 80.8555 438.252 80.9485 437.731 81.163C437.21 81.3775 436.744 81.7078 436.37 82.1289C436.313 82.1916 436.241 82.2375 436.16 82.2615C436.079 82.2855 435.993 82.2868 435.912 82.2651Z" fill="#263238"/>
<path d="M482.486 132.862L469.61 129.433C469.61 129.433 456.983 160.519 452.514 162.537C446.447 165.31 431.084 174.917 424.547 179.46C424.188 181.008 424.473 185.106 425.29 186.232C436.432 184.202 457.763 175.994 462.22 171.822C472.384 162.302 482.486 132.862 482.486 132.862Z" fill="#E58A7B"/>
<path d="M473.498 439.366C472.87 439.416 472.244 439.245 471.728 438.883C471.568 438.739 471.449 438.556 471.382 438.352C471.314 438.148 471.301 437.93 471.344 437.72C471.352 437.588 471.395 437.461 471.469 437.352C471.543 437.243 471.645 437.156 471.765 437.101C472.805 436.568 475.714 438.413 476.048 438.623C476.085 438.646 476.113 438.68 476.129 438.72C476.145 438.76 476.147 438.805 476.135 438.846C476.124 438.889 476.103 438.929 476.072 438.962C476.042 438.994 476.004 439.018 475.962 439.032C475.154 439.23 474.329 439.342 473.498 439.366ZM472.26 437.435C472.166 437.414 472.069 437.414 471.975 437.435C471.928 437.459 471.888 437.496 471.862 437.543C471.836 437.589 471.823 437.642 471.827 437.695C471.794 437.839 471.799 437.989 471.843 438.13C471.886 438.272 471.966 438.399 472.074 438.5C472.557 438.933 473.77 438.982 475.367 438.673C474.416 438.047 473.345 437.625 472.223 437.435H472.26Z" fill="#2D1600"/>
<path d="M475.9 439.032C475.867 439.042 475.833 439.042 475.801 439.032C474.872 438.512 473.126 436.469 473.386 435.429C473.425 435.264 473.518 435.117 473.651 435.012C473.783 434.906 473.948 434.848 474.117 434.847C474.283 434.825 474.452 434.839 474.612 434.888C474.773 434.937 474.92 435.021 475.045 435.132C476.073 436.011 476.135 438.71 476.135 438.846C476.141 438.887 476.133 438.928 476.113 438.964C476.093 439 476.061 439.028 476.023 439.044C475.982 439.053 475.939 439.048 475.9 439.032ZM474.241 435.256H474.154C473.869 435.256 473.832 435.417 473.82 435.479C473.671 436.085 474.773 437.633 475.689 438.363C475.685 437.318 475.361 436.298 474.761 435.442C474.617 435.316 474.431 435.25 474.241 435.256Z" fill="#2D1600"/>
<path d="M440.629 437.819C439.872 438.083 439.047 438.083 438.289 437.819C438.117 437.725 437.971 437.59 437.865 437.426C437.759 437.262 437.696 437.073 437.683 436.878C437.667 436.755 437.683 436.631 437.728 436.516C437.774 436.402 437.847 436.3 437.943 436.222C438.933 435.33 442.981 436.222 443.439 436.395C443.483 436.406 443.521 436.432 443.548 436.468C443.575 436.504 443.589 436.548 443.588 436.593C443.59 436.639 443.578 436.685 443.554 436.725C443.529 436.765 443.494 436.796 443.452 436.816C442.54 437.227 441.596 437.563 440.629 437.819ZM438.611 436.345C438.47 436.374 438.338 436.438 438.227 436.531C438.188 436.561 438.158 436.601 438.14 436.647C438.123 436.693 438.118 436.743 438.128 436.791C438.136 436.921 438.177 437.047 438.246 437.157C438.315 437.267 438.411 437.359 438.524 437.422C439.181 437.769 440.703 437.497 442.672 436.667C441.346 436.333 439.973 436.224 438.611 436.345Z" fill="#2D1600"/>
<path d="M443.415 436.816H443.316C442.078 436.593 439.602 435.169 439.527 434.105C439.527 433.857 439.639 433.51 440.233 433.312C440.434 433.241 440.647 433.211 440.86 433.223C441.072 433.236 441.28 433.292 441.471 433.387C442.808 434.043 443.514 436.42 443.551 436.531C443.56 436.569 443.558 436.608 443.548 436.645C443.537 436.681 443.517 436.715 443.489 436.742C443.47 436.772 443.445 436.797 443.415 436.816ZM440.481 433.684H440.357C439.973 433.82 439.973 433.981 439.973 434.03C439.973 434.674 441.768 435.85 443.019 436.246C442.731 435.252 442.121 434.381 441.285 433.77C441.037 433.644 440.75 433.613 440.481 433.684Z" fill="#2D1600"/>
<path d="M425.6 178.73L412.687 184.672L411.189 188.386L415.956 191.593C415.956 191.593 424.869 190.627 427.407 184.895L425.6 178.73Z" fill="#E58A7B"/>
<path d="M426.145 186.443C425.856 183.962 425.037 181.572 423.743 179.436L425.786 177.901C427.322 180.362 428.303 183.13 428.658 186.009L426.145 186.443Z" fill="#263238"/>
<path d="M428.348 180.488C428.621 180.917 428.755 181.42 428.732 181.929C428.709 182.437 428.53 182.926 428.219 183.329C427.908 183.731 427.481 184.029 426.995 184.18C426.51 184.332 425.989 184.33 425.504 184.175C425.02 184.02 424.595 183.72 424.287 183.314C423.979 182.909 423.803 182.419 423.784 181.911C423.765 181.402 423.902 180.9 424.178 180.473C424.454 180.046 424.856 179.714 425.327 179.522C425.856 179.253 426.47 179.203 427.036 179.384C427.602 179.565 428.073 179.961 428.348 180.488Z" fill="#263238"/>
<path d="M403.959 189.476L405.68 191.209L417.267 186.257L412.687 184.672L403.959 189.476Z" fill="#E58A7B"/>
<path opacity="0.2" d="M453.714 415.758C453.789 415.758 455.472 420.487 455.472 420.487L438.338 427.692L435.64 422.666L453.714 415.758Z" fill="black"/>
<path opacity="0.2" d="M488.738 421.762C488.812 421.762 489.307 426.528 489.307 426.528H470.539L469.202 421.056L488.738 421.762Z" fill="black"/>
<path d="M485.841 129.297C489.246 140.278 475.937 155.295 475.937 155.295L457.553 147.792C459.732 141.445 462.244 135.218 465.08 129.136C470.725 116.966 482.399 118.217 485.841 129.297Z" fill="#2D1600"/>
<path opacity="0.2" d="M485.841 129.297C489.246 140.278 475.937 155.295 475.937 155.295L457.553 147.792C459.732 141.445 462.244 135.218 465.08 129.136C470.725 116.966 482.399 118.217 485.841 129.297Z" fill="black"/>
<path d="M303.162 19.2756H295.251V20.5508H303.162V19.2756Z" fill="#2D1600"/>
<path d="M405.567 69.7446L404.609 90.9919L405.883 91.0493L406.841 69.802L405.567 69.7446Z" fill="#2D1600"/>
<path d="M403.105 24.9952H257.021L243.428 329.197H389.512L403.105 24.9952Z" fill="#2D1600"/>
<path opacity="0.56" d="M398.748 29.1796H252.664L239.07 333.381H385.154L398.748 29.1796Z" fill="#FAFAFA"/>
<path opacity="0.07" d="M394.39 33.3517H248.306L234.7 337.553H380.784L394.39 33.3517Z" fill="#2D1600"/>
<path d="M377.764 166.028H253.072L252.032 189.303H376.724L377.764 166.028Z" fill="white"/>
<path d="M321.645 149.043H253.827L253.369 159.454H321.187L321.645 149.043Z" fill="#2D1600"/>
<path d="M374.953 228.844H250.262L249.222 252.119H373.913L374.953 228.844Z" fill="white"/>
<path opacity="0.47" d="M352.087 283.551H268.238L266.987 311.444H350.837L352.087 283.551Z" fill="#2D1600"/>
<path d="M346.479 315.777H262.629C262.593 315.786 262.555 315.786 262.518 315.777C262.506 315.74 262.506 315.701 262.518 315.665L263.756 287.761C263.756 287.742 263.76 287.723 263.767 287.706C263.775 287.688 263.786 287.673 263.8 287.66C263.814 287.647 263.831 287.637 263.849 287.631C263.867 287.625 263.886 287.623 263.905 287.624H347.754C347.77 287.617 347.787 287.613 347.804 287.613C347.821 287.613 347.838 287.617 347.853 287.624C347.862 287.64 347.867 287.657 347.867 287.674C347.867 287.691 347.862 287.708 347.853 287.724L346.64 315.69C346.625 315.719 346.602 315.743 346.573 315.758C346.544 315.774 346.512 315.78 346.479 315.777ZM262.778 315.479H346.331L347.569 287.872H264.016L262.778 315.479Z" fill="white"/>
<path d="M306.999 211.859H251.017L250.559 222.283H306.529L306.999 211.859Z" fill="#2D1600"/>
<path d="M350.49 90.8444C350.17 97.618 347.761 104.126 343.594 109.476C340.51 113.517 336.54 116.798 331.991 119.066C327.441 121.335 322.432 122.53 317.349 122.562C313.241 122.593 309.17 121.783 305.386 120.182C301.603 118.58 298.188 116.221 295.351 113.249C292.514 110.278 290.316 106.757 288.891 102.904C287.466 99.0508 286.846 94.9466 287.067 90.8444C287.503 82.3319 291.173 74.3073 297.329 68.4117C303.485 62.516 311.66 59.1947 320.184 59.1269C324.295 59.0885 328.37 59.8936 332.158 61.4924C335.946 63.0913 339.365 65.4498 342.206 68.4224C345.046 71.3949 347.247 74.9183 348.671 78.7749C350.096 82.6314 350.715 86.7392 350.49 90.8444Z" fill="white"/>
<path d="M353.474 65.7625C353.393 67.5636 352.753 69.2947 351.642 70.7145C350.82 71.7878 349.763 72.6592 348.553 73.2621C347.343 73.865 346.011 74.1835 344.659 74.1933C343.35 74.2013 342.058 73.8884 340.897 73.282C339.736 72.6756 338.741 71.7941 337.999 70.7145C337.017 69.2558 336.53 67.5193 336.612 65.7625C336.732 63.5025 337.709 61.3731 339.345 59.8088C340.981 58.2445 343.151 57.363 345.415 57.3441C346.506 57.3342 347.589 57.5479 348.595 57.9721C349.601 58.3963 350.509 59.022 351.265 59.8107C352.02 60.5994 352.605 61.5344 352.985 62.558C353.365 63.5816 353.531 64.6722 353.474 65.7625Z" fill="#2D1600"/>
<path d="M266.504 177.665C266.445 178.663 266.009 179.601 265.286 180.29C264.562 180.979 263.604 181.369 262.605 181.379C262.122 181.385 261.643 181.292 261.198 181.105C260.753 180.919 260.351 180.643 260.017 180.295C259.683 179.947 259.424 179.534 259.256 179.081C259.087 178.629 259.014 178.147 259.039 177.665C259.093 176.666 259.526 175.724 260.251 175.034C260.976 174.344 261.938 173.956 262.939 173.951C263.421 173.947 263.899 174.042 264.343 174.229C264.787 174.416 265.188 174.692 265.522 175.04C265.856 175.388 266.115 175.8 266.284 176.251C266.453 176.703 266.528 177.184 266.504 177.665Z" fill="#263238"/>
<path d="M283.193 177.665C283.136 178.664 282.702 179.604 281.978 180.293C281.253 180.983 280.294 181.372 279.293 181.379C278.812 181.383 278.335 181.289 277.891 181.102C277.448 180.914 277.047 180.638 276.714 180.29C276.381 179.942 276.123 179.53 275.956 179.079C275.788 178.627 275.715 178.146 275.74 177.665C275.794 176.668 276.226 175.728 276.948 175.038C277.67 174.348 278.629 173.959 279.628 173.951C280.11 173.946 280.589 174.039 281.034 174.225C281.479 174.412 281.881 174.688 282.215 175.036C282.549 175.384 282.808 175.797 282.977 176.249C283.145 176.702 283.218 177.183 283.193 177.665Z" fill="#263238"/>
<path d="M299.893 177.665C299.837 178.664 299.402 179.604 298.678 180.293C297.953 180.983 296.994 181.372 295.994 181.379C295.512 181.383 295.034 181.289 294.59 181.102C294.145 180.914 293.744 180.639 293.41 180.291C293.076 179.943 292.817 179.531 292.648 179.079C292.479 178.628 292.404 178.147 292.428 177.665C292.485 176.667 292.919 175.727 293.644 175.037C294.368 174.347 295.328 173.959 296.328 173.951C296.81 173.946 297.289 174.039 297.734 174.225C298.179 174.412 298.581 174.688 298.915 175.036C299.249 175.384 299.508 175.797 299.677 176.249C299.845 176.702 299.919 177.183 299.893 177.665Z" fill="#263238"/>
<path d="M263.694 240.481C263.635 241.479 263.199 242.417 262.475 243.106C261.752 243.795 260.794 244.185 259.794 244.195C259.312 244.199 258.835 244.105 258.39 243.918C257.946 243.731 257.545 243.455 257.211 243.107C256.877 242.759 256.618 242.347 256.449 241.896C256.28 241.444 256.205 240.963 256.229 240.481C256.285 239.483 256.72 238.543 257.444 237.853C258.169 237.164 259.128 236.775 260.129 236.767C260.611 236.764 261.088 236.858 261.532 237.045C261.977 237.232 262.378 237.508 262.712 237.856C263.046 238.204 263.305 238.616 263.474 239.067C263.643 239.519 263.718 240 263.694 240.481Z" fill="#263238"/>
<path d="M280.382 240.481C280.326 241.478 279.893 242.416 279.172 243.105C278.45 243.795 277.493 244.185 276.495 244.195C276.013 244.201 275.534 244.108 275.089 243.921C274.644 243.735 274.242 243.459 273.908 243.111C273.574 242.763 273.314 242.35 273.146 241.898C272.978 241.445 272.904 240.963 272.93 240.481C272.986 239.483 273.421 238.543 274.145 237.853C274.869 237.164 275.829 236.775 276.829 236.767C277.311 236.763 277.788 236.858 278.232 237.045C278.675 237.233 279.076 237.509 279.409 237.857C279.741 238.205 280 238.617 280.167 239.068C280.334 239.52 280.408 240.001 280.382 240.481Z" fill="#263238"/>
<path d="M297.12 240.481C297.064 241.48 296.629 242.42 295.905 243.11C295.18 243.799 294.221 244.188 293.22 244.195C292.739 244.198 292.262 244.102 291.819 243.914C291.375 243.726 290.975 243.45 290.641 243.103C290.308 242.756 290.048 242.344 289.879 241.894C289.709 241.443 289.633 240.962 289.655 240.481C289.714 239.484 290.15 238.546 290.874 237.857C291.597 237.167 292.555 236.778 293.555 236.767C294.037 236.762 294.516 236.855 294.961 237.042C295.406 237.228 295.808 237.504 296.142 237.852C296.476 238.2 296.735 238.613 296.904 239.065C297.072 239.518 297.146 240 297.12 240.481Z" fill="#263238"/>
<path d="M313.783 240.481C313.724 241.479 313.288 242.417 312.565 243.106C311.841 243.795 310.883 244.185 309.884 244.195C309.402 244.198 308.925 244.102 308.482 243.914C308.038 243.726 307.638 243.45 307.304 243.103C306.971 242.756 306.712 242.344 306.542 241.894C306.372 241.443 306.296 240.962 306.318 240.481C306.378 239.484 306.813 238.546 307.537 237.857C308.26 237.167 309.218 236.778 310.218 236.767C310.7 236.764 311.178 236.858 311.622 237.045C312.066 237.232 312.467 237.508 312.801 237.856C313.135 238.204 313.394 238.616 313.563 239.067C313.732 239.519 313.807 240 313.783 240.481Z" fill="#263238"/>
<path d="M330.546 240.481C330.487 241.479 330.051 242.417 329.328 243.106C328.604 243.795 327.646 244.185 326.647 244.195C326.164 244.201 325.685 244.108 325.24 243.921C324.795 243.735 324.393 243.459 324.059 243.111C323.725 242.763 323.466 242.35 323.298 241.898C323.129 241.445 323.056 240.963 323.081 240.481C323.138 239.483 323.572 238.543 324.297 237.853C325.021 237.164 325.981 236.775 326.981 236.767C327.463 236.764 327.941 236.858 328.385 237.045C328.829 237.232 329.23 237.508 329.564 237.856C329.898 238.204 330.157 238.616 330.326 239.067C330.495 239.519 330.57 240 330.546 240.481Z" fill="#263238"/>
<path d="M328.012 89.1925C333.194 84.1253 333.469 76.0032 328.627 71.0512C323.784 66.0993 315.658 66.1927 310.476 71.2599C305.294 76.3272 305.019 84.4493 309.862 89.4012C314.704 94.3532 322.831 94.2597 328.012 89.1925Z" fill="#2D1600"/>
<path d="M343.595 109.476C340.51 113.517 336.541 116.798 331.991 119.066C327.442 121.335 322.433 122.53 317.349 122.562C312.419 122.604 307.555 121.432 303.186 119.15C298.816 116.868 295.075 113.546 292.292 109.476C298.309 103.484 307.829 99.5723 318.377 99.5723C328.924 99.5723 338.11 103.484 343.595 109.476Z" fill="#2D1600"/>
<path opacity="0.1" d="M328.012 89.1925C333.194 84.1253 333.469 76.0032 328.627 71.0512C323.784 66.0993 315.658 66.1927 310.476 71.2599C305.294 76.3272 305.019 84.4493 309.862 89.4012C314.704 94.3532 322.831 94.2597 328.012 89.1925Z" fill="white"/>
<path opacity="0.1" d="M343.595 109.476C340.51 113.517 336.541 116.798 331.991 119.066C327.442 121.335 322.433 122.53 317.349 122.562C312.419 122.604 307.555 121.432 303.186 119.15C298.816 116.868 295.075 113.546 292.292 109.476C298.309 103.484 307.829 99.5723 318.377 99.5723C328.924 99.5723 338.11 103.484 343.595 109.476Z" fill="white"/>
<path d="M161.449 194.911C160.272 197.486 159.034 200.321 157.957 203.069C156.88 205.817 155.779 208.652 154.825 211.475C152.879 217.038 151.397 222.752 150.393 228.56L150.121 230.379C150.095 230.692 150.124 231.006 150.208 231.308C150.5 232.334 150.96 233.304 151.569 234.18C153.159 236.447 155.003 238.523 157.066 240.37C159.241 242.393 161.522 244.298 163.9 246.077C166.277 247.909 168.778 249.692 171.241 251.376L168.926 255.721C163.043 253.158 157.46 249.957 152.275 246.176C149.509 244.159 147.013 241.796 144.847 239.144C143.563 237.566 142.562 235.778 141.888 233.858C141.496 232.659 141.296 231.406 141.294 230.144C141.294 229.847 141.294 229.414 141.294 229.203V228.597L141.418 227.359C142.127 220.909 143.484 214.546 145.466 208.368C146.432 205.322 147.459 202.289 148.635 199.33C149.811 196.372 151.025 193.475 152.523 190.466L161.449 194.911Z" fill="#E58A7B"/>
<path d="M169.495 250.608L178.248 246.176L175.982 255.783C175.982 255.783 169.978 257.467 167.192 254.545L169.495 250.608Z" fill="#E58A7B"/>
<path d="M186.258 247.749L183.93 255.696L175.982 255.783L178.248 246.176L186.258 247.749Z" fill="#E58A7B"/>
<path d="M198.613 148.56C199.081 150.276 199.732 151.936 200.556 153.512C200.316 153.785 200.006 153.988 199.659 154.099C199.313 154.21 198.942 154.225 198.588 154.143L198.613 148.56Z" fill="#DF5753"/>
<path d="M198.353 148.634C198.866 148.634 199.282 147.997 199.282 147.211C199.282 146.424 198.866 145.787 198.353 145.787C197.841 145.787 197.425 146.424 197.425 147.211C197.425 147.997 197.841 148.634 198.353 148.634Z" fill="#263238"/>
<path d="M198.081 145.836L199.963 145.304C199.963 145.304 199.047 146.765 198.081 145.836Z" fill="#263238"/>
<path d="M174.435 157.647C175.562 163.404 176.688 173.964 172.652 177.814C172.652 177.814 174.237 183.657 184.946 183.657C196.719 183.657 190.566 177.814 190.566 177.814C184.141 176.279 184.302 171.512 185.428 167.031L174.435 157.647Z" fill="#E58A7B"/>
<path d="M171.303 144.524C171.897 154.143 171.946 158.229 176.799 163.168C184.116 170.596 195.803 167.774 198.093 158.216C200.16 149.55 198.848 135.289 189.427 131.463C187.359 130.611 185.108 130.301 182.886 130.562C180.665 130.822 178.547 131.646 176.732 132.953C174.918 134.261 173.467 136.01 172.517 138.034C171.567 140.059 171.149 142.293 171.303 144.524Z" fill="#E58A7B"/>
<path d="M172.256 133.704C167.428 135.462 160.991 134.15 163.516 149.043C166.19 164.815 162.08 170.002 162.08 170.002C162.08 170.002 180.39 173.902 199.084 169.767C199.084 169.767 193.377 159.789 194.974 152.435C197.016 143.15 195.407 139.721 195.407 139.721C195.407 139.721 179.041 131.228 172.256 133.704Z" fill="#263238"/>
<path d="M192.683 149.538C192.688 151.367 193.211 153.157 194.193 154.7C195.505 156.706 197.053 155.938 197.437 153.809C197.783 151.94 197.523 148.634 195.852 147.347C194.181 146.059 192.707 147.322 192.683 149.538Z" fill="#E58A7B"/>
<path d="M168.059 135.326C166.672 131.426 173.283 125.422 187.272 127.898C201.262 130.374 201.868 142.023 201.868 142.023L199.046 138.656L199.17 142.197L184.796 144.957L168.059 135.326Z" fill="#263238"/>
<path d="M169.248 178.47C169.165 177.905 169.306 177.33 169.642 176.867C169.977 176.405 170.48 176.091 171.043 175.994C175.4 175.276 185.304 173.815 190.281 174.508C193.995 175.028 194.961 177.183 195.122 178.953C195.147 179.263 195.106 179.575 195 179.867C194.895 180.16 194.728 180.427 194.511 180.649C194.294 180.872 194.032 181.046 193.742 181.159C193.453 181.272 193.142 181.322 192.832 181.305L171.315 180.339C170.808 180.314 170.325 180.114 169.948 179.773C169.572 179.432 169.324 178.972 169.248 178.47Z" fill="#2D1600"/>
<path opacity="0.6" d="M169.248 178.47C169.165 177.905 169.306 177.33 169.642 176.867C169.977 176.405 170.48 176.091 171.043 175.994C175.4 175.276 185.304 173.815 190.281 174.508C193.995 175.028 194.961 177.183 195.122 178.953C195.147 179.263 195.106 179.575 195 179.867C194.895 180.16 194.728 180.427 194.511 180.649C194.294 180.872 194.032 181.046 193.742 181.159C193.453 181.272 193.142 181.322 192.832 181.305L171.315 180.339C170.808 180.314 170.325 180.114 169.948 179.773C169.572 179.432 169.324 178.972 169.248 178.47Z" fill="black"/>
<path d="M181.689 394.749L189.675 400.295L203.033 382.183L195.047 376.649L181.689 394.749Z" fill="#E58A7B"/>
<path d="M163.07 394.39L171.501 399.193L183.324 380.041L174.893 375.238L163.07 394.39Z" fill="#E58A7B"/>
<path d="M203.021 382.183L196.137 391.517L188.152 385.984L195.036 376.649L203.021 382.183Z" fill="#CF6F64"/>
<path d="M174.88 375.238L183.323 380.054L177.232 389.92L168.789 385.105L174.88 375.238Z" fill="#CF6F64"/>
<path d="M188.425 238.934C188.425 238.934 219.597 278.216 213.742 315.789C209.025 346.132 181.665 387.222 181.665 387.222L168.802 380.834C177.869 362.666 185.606 343.865 191.953 324.579C193.91 318.591 194.481 312.237 193.623 305.996C192.766 299.755 190.501 293.791 187.001 288.553C171.204 265.489 145.899 279.218 162.922 238.934H188.425Z" fill="#2D1600"/>
<path opacity="0.6" d="M188.425 238.934C188.425 238.934 219.597 278.216 213.742 315.789C209.025 346.132 181.665 387.222 181.665 387.222L168.802 380.834C177.869 362.666 185.606 343.865 191.953 324.579C193.91 318.591 194.481 312.237 193.623 305.996C192.766 299.755 190.501 293.791 187.001 288.553C171.204 265.489 145.899 279.218 162.922 238.934H188.425Z" fill="black"/>
<path opacity="0.4" d="M203.714 264.164L199.183 259.658C199.183 260.017 207.96 314.204 210.424 329.432C211.877 324.983 212.991 320.431 213.754 315.814C216.651 297.38 210.597 278.55 203.714 264.164Z" fill="black"/>
<path d="M202.339 238.934C202.339 238.934 239.875 288.305 240.94 317.906C241.819 342.666 200.086 390.638 200.086 390.638L187.954 382.79C187.954 382.79 212.379 348.72 218.532 320.89C216.155 293.307 165.893 238.934 165.893 238.934H202.339Z" fill="#2D1600"/>
<path opacity="0.6" d="M202.339 238.934C202.339 238.934 239.875 288.305 240.94 317.906C241.819 342.666 200.086 390.638 200.086 390.638L187.954 382.79C187.954 382.79 212.379 348.72 218.532 320.89C216.155 293.307 165.893 238.934 165.893 238.934H202.339Z" fill="black"/>
<path d="M155.902 180.018C151.891 180.971 148.041 195.554 148.041 195.554L163.726 206.028C163.726 206.028 168.951 194.49 167.119 189.439C165.224 184.177 160.941 178.817 155.902 180.018Z" fill="#2D1600"/>
<path opacity="0.2" d="M158.972 189.414L157.883 202.128L163.714 206.04C165.324 202.416 166.516 198.619 167.267 194.725L158.972 189.414Z" fill="black"/>
<path d="M206.981 180.302C206.981 180.302 211.611 181.924 202.339 238.922H162.896C163.565 222.828 163.577 212.924 155.901 180.018C161.424 178.879 167.022 178.143 172.652 177.814C178.615 177.386 184.602 177.386 190.565 177.814C198.266 178.52 206.981 180.302 206.981 180.302Z" fill="#2D1600"/>
<path d="M210.993 189.414C211.885 191.89 212.826 194.552 213.816 197.114C214.806 199.677 215.747 202.314 216.75 204.914L219.783 212.688L220.551 214.632L220.947 215.598L221.133 216.08C221.133 216.167 221.133 216.167 221.133 216.155C220.906 215.836 220.61 215.573 220.266 215.387C219.776 215.099 219.224 214.933 218.657 214.904C218.185 214.89 217.716 214.978 217.282 215.164C216.713 215.424 216.713 215.536 216.725 215.523C216.828 215.441 216.92 215.345 216.998 215.239C217.683 214.339 218.276 213.373 218.768 212.354C219.35 211.215 219.907 210.002 220.464 208.776C221.554 206.3 222.556 203.738 223.559 201.15C224.562 198.563 225.515 195.951 226.444 193.314L229.266 185.415L234.033 186.653C233.092 192.299 231.878 197.795 230.418 203.391C229.712 206.176 228.883 208.937 227.942 211.723C227.471 213.122 226.951 214.508 226.357 215.932C225.738 217.477 224.975 218.961 224.079 220.364C223.75 220.836 223.386 221.283 222.99 221.701C222.357 222.384 221.59 222.928 220.736 223.298C219.979 223.623 219.158 223.775 218.335 223.744C217.412 223.709 216.513 223.441 215.723 222.964C214.79 222.382 214.016 221.578 213.469 220.624C213.284 220.302 213.123 219.98 213.011 219.745L212.776 219.275L212.306 218.309L211.365 216.39C210.127 213.815 208.889 211.215 207.812 208.603C206.735 205.991 205.596 203.341 204.531 200.68C203.466 198.018 202.513 195.356 201.609 192.484L210.993 189.414Z" fill="#E58A7B"/>
<path d="M206.982 180.302C211.723 181.429 217.059 195.443 217.059 195.443L202.958 207.439C202.958 207.439 193.834 192.162 195.679 187.124C197.598 181.875 200.792 178.829 206.982 180.302Z" fill="#2D1600"/>
<path d="M231.506 180.983L236.458 176.848L239.9 182.209L237.362 186.678C237.362 186.678 233.326 190.392 229.761 188.498C229.195 187.226 229.059 185.804 229.374 184.448C229.689 183.092 230.438 181.875 231.506 180.983Z" fill="#E58A7B"/>
<path d="M245.397 176.861L245.026 178.21L237.189 179.522L236.422 176.848L245.397 176.861Z" fill="#E58A7B"/>
<path d="M201.052 391.27L186.914 382.133L189.452 377.726L205.336 387.494L201.052 391.27Z" fill="#2D1600"/>
<path d="M177.034 398.549C175.794 398.398 174.602 397.975 173.543 397.311C173.499 397.296 173.462 397.268 173.435 397.23C173.408 397.192 173.394 397.147 173.394 397.101C173.394 397.055 173.408 397.009 173.435 396.972C173.462 396.934 173.499 396.906 173.543 396.89C173.927 396.767 177.257 395.739 178.223 396.531C178.331 396.622 178.414 396.739 178.462 396.872C178.51 397.005 178.521 397.148 178.495 397.287C178.478 397.509 178.404 397.724 178.281 397.911C178.157 398.097 177.988 398.249 177.789 398.351C177.558 398.478 177.298 398.546 177.034 398.549ZM174.249 397.188C175.796 397.98 177.034 398.265 177.629 397.967C177.758 397.896 177.867 397.792 177.945 397.666C178.023 397.541 178.067 397.397 178.074 397.249C178.074 397.051 178.074 396.965 177.963 396.915C177.443 396.494 175.586 396.816 174.224 397.188H174.249Z" fill="#263238"/>
<path d="M173.63 397.398C173.565 397.397 173.502 397.37 173.457 397.324C173.438 397.289 173.429 397.251 173.429 397.212C173.429 397.173 173.438 397.135 173.457 397.101C173.457 396.989 174.261 394.303 175.524 393.696C175.686 393.623 175.861 393.585 176.038 393.585C176.215 393.585 176.39 393.623 176.552 393.696C176.726 393.751 176.876 393.863 176.979 394.013C177.083 394.163 177.132 394.344 177.121 394.526C177.035 395.64 174.769 397.175 173.729 397.435L173.63 397.398ZM176.032 394.018C175.911 394.022 175.793 394.051 175.685 394.105C174.918 394.476 174.286 395.925 173.977 396.804C175.066 396.346 176.564 395.132 176.614 394.451C176.614 394.34 176.614 394.204 176.329 394.08C176.236 394.03 176.136 393.997 176.032 393.981V394.018Z" fill="#263238"/>
<path d="M194.701 403.897C193.302 403.897 191.358 402.102 190.294 401.001C190.267 400.963 190.252 400.917 190.252 400.871C190.252 400.824 190.267 400.778 190.294 400.741C190.318 400.701 190.353 400.668 190.394 400.646C190.436 400.625 190.482 400.614 190.529 400.617C191.024 400.617 195.32 401.261 195.927 402.474C195.991 402.583 196.025 402.707 196.025 402.833C196.025 402.959 195.991 403.083 195.927 403.192C195.836 403.381 195.698 403.543 195.527 403.665C195.356 403.786 195.157 403.862 194.949 403.885L194.701 403.897ZM191.111 401.174C192.671 402.684 194.045 403.526 194.825 403.427C194.961 403.409 195.092 403.358 195.204 403.278C195.316 403.198 195.407 403.092 195.469 402.969C195.496 402.927 195.511 402.877 195.511 402.827C195.511 402.776 195.496 402.727 195.469 402.684C195.147 402.016 192.856 401.446 191.111 401.174Z" fill="#263238"/>
<path d="M191.247 401.112C190.969 401.12 190.691 401.099 190.417 401.05C190.379 401.044 190.343 401.029 190.313 401.005C190.282 400.981 190.259 400.95 190.244 400.914C190.225 400.877 190.216 400.837 190.216 400.796C190.216 400.755 190.225 400.715 190.244 400.679C190.318 400.592 191.99 398.574 193.574 398.438C194.023 398.403 194.467 398.545 194.812 398.834C195.295 399.255 195.27 399.626 195.146 399.862C194.837 400.703 192.695 401.112 191.247 401.112ZM190.925 400.654C192.311 400.728 194.527 400.27 194.812 399.663C194.812 399.663 194.911 399.465 194.589 399.193C194.461 399.082 194.312 398.998 194.15 398.947C193.988 398.896 193.817 398.878 193.648 398.896C192.581 399.194 191.63 399.812 190.925 400.666V400.654Z" fill="#263238"/>
<path d="M173.965 396.061L163.467 393.09C163.286 393.035 163.091 393.049 162.919 393.129C162.748 393.209 162.612 393.349 162.538 393.523L158.997 401.483C158.914 401.687 158.875 401.906 158.883 402.126C158.89 402.346 158.945 402.562 159.042 402.76C159.139 402.958 159.276 403.133 159.446 403.273C159.615 403.414 159.813 403.517 160.025 403.576C163.739 404.541 165.522 404.814 170.139 406.138C172.987 406.931 177.047 408.404 180.972 409.518C184.896 410.632 186.209 406.807 184.686 405.99C177.803 402.35 177.258 399.8 175.376 397.076C175.039 396.583 174.54 396.224 173.965 396.061Z" fill="#2D1600"/>
<path d="M190.578 399.552L181.615 393.362C181.463 393.251 181.276 393.2 181.089 393.219C180.902 393.237 180.728 393.323 180.6 393.461L174.658 399.849C174.513 400.014 174.405 400.208 174.341 400.418C174.277 400.629 174.258 400.85 174.286 401.068C174.314 401.285 174.388 401.495 174.504 401.682C174.619 401.869 174.773 402.029 174.955 402.152C178.112 404.269 179.746 405.123 183.695 407.859C186.171 409.543 190.962 413.282 194.305 415.609C197.647 417.936 200.136 414.742 198.947 413.48C193.624 407.797 192.46 404.232 191.581 401.001C191.428 400.414 191.073 399.901 190.578 399.552Z" fill="#2D1600"/>
<path d="M183.311 388.039L167.155 380.004L168.827 375.622L186.084 384.089L183.311 388.039Z" fill="#2D1600"/>
<path d="M162.303 236.607L160.941 240.172C160.805 240.444 161.126 240.729 161.584 240.729H202.538C202.897 240.729 203.194 240.556 203.218 240.333L203.565 236.792C203.565 236.557 203.28 236.347 202.897 236.347H162.946C162.826 236.335 162.705 236.353 162.593 236.398C162.481 236.443 162.381 236.515 162.303 236.607Z" fill="#2D1600"/>
<path opacity="0.4" d="M162.303 236.607L160.941 240.172C160.805 240.444 161.126 240.729 161.584 240.729H202.538C202.897 240.729 203.194 240.556 203.218 240.333L203.565 236.792C203.565 236.557 203.28 236.347 202.897 236.347H162.946C162.826 236.335 162.705 236.353 162.593 236.398C162.481 236.443 162.381 236.515 162.303 236.607Z" fill="white"/>
<path d="M168.752 241.076H167.675C167.465 241.076 167.304 240.964 167.316 240.828L167.824 236.235C167.824 236.111 168.022 236 168.232 236H169.309C169.52 236 169.681 236.111 169.668 236.235L169.161 240.828C169.148 240.964 168.963 241.076 168.752 241.076Z" fill="#2D1600"/>
<path d="M194.007 241.076H192.943C192.732 241.076 192.571 240.964 192.584 240.828L193.079 236.235C193.079 236.111 193.289 236 193.5 236H194.564C194.775 236 194.948 236.111 194.923 236.235L194.428 240.828C194.366 240.964 194.23 241.076 194.007 241.076Z" fill="#2D1600"/>
<g style="mix-blend-mode:multiply">
<path d="M167.812 450.731C186.129 450.731 200.978 449.656 200.978 448.329C200.978 447.003 186.129 445.928 167.812 445.928C149.494 445.928 134.646 447.003 134.646 448.329C134.646 449.656 149.494 450.731 167.812 450.731Z" fill="#F5F5F5"/>
</g>
<path d="M188.015 444.937C182.147 443.229 175.635 441.037 171.698 438.747C171.587 438.673 171.463 438.636 171.352 438.574V412.006H183.224C184.125 411.953 184.972 411.557 185.591 410.9C186.211 410.243 186.556 409.375 186.556 408.472C186.556 407.569 186.211 406.7 185.591 406.043C184.972 405.386 184.125 404.991 183.224 404.937H171.414V283.836H164.283V404.937H152.485C152.003 404.909 151.52 404.979 151.067 405.144C150.613 405.309 150.198 405.564 149.847 405.895C149.496 406.226 149.216 406.626 149.025 407.069C148.833 407.512 148.735 407.989 148.735 408.472C148.735 408.954 148.833 409.432 149.025 409.875C149.216 410.318 149.496 410.717 149.847 411.048C150.198 411.379 150.613 411.635 151.067 411.8C151.52 411.965 152.003 412.035 152.485 412.006H164.283V438.537C164.171 438.537 164.06 438.636 163.948 438.71C159.95 441.037 153.487 443.229 147.619 444.9C147.223 445.02 146.882 445.278 146.66 445.627C146.437 445.976 146.347 446.393 146.405 446.803C146.463 447.213 146.667 447.589 146.978 447.862C147.289 448.135 147.688 448.288 148.102 448.292H187.532C187.928 448.265 188.303 448.103 188.593 447.834C188.884 447.564 189.074 447.202 189.13 446.81C189.187 446.417 189.107 446.017 188.904 445.676C188.701 445.336 188.387 445.075 188.015 444.937Z" fill="#E0E0E0"/>
<path d="M189.836 271.506H145.812C142.271 271.506 139.399 274.377 139.399 277.919V291.004C139.399 294.546 142.271 297.417 145.812 297.417H189.836C193.377 297.417 196.248 294.546 196.248 291.004V277.919C196.248 274.377 193.377 271.506 189.836 271.506Z" fill="#2D1600"/>
<path d="M145.403 297.429V299.683C145.403 301.54 147.421 303.05 149.897 303.05H185.799C188.275 303.05 190.293 301.54 190.293 299.683V297.429H145.403Z" fill="#2D1600"/>
<path opacity="0.3" d="M145.403 297.429V299.683C145.403 301.54 147.421 303.05 149.897 303.05H185.799C188.275 303.05 190.293 301.54 190.293 299.683V297.429H145.403Z" fill="white"/>
</svg>
