<svg width="300" height="87" viewBox="0 0 300 87" fill="none" xmlns="http://www.w3.org/2000/svg">
<g clip-path="url(#clip0_405_51)">
<g clip-path="url(#clip1_405_51)">
<g clip-path="url(#clip2_405_51)">
<path d="M47.9463 2.97144C47.9463 1.3189 47.1384 -0.020752 46.1419 -0.020752C45.1453 -0.020752 44.3375 1.3189 44.3375 2.97144V84.0284C44.3375 85.681 45.1453 87.0206 46.1419 87.0206C47.1384 87.0206 47.9463 85.681 47.9463 84.0284V2.97144Z" fill="#AC7364"/>
<g clip-path="url(#clip3_405_51)">
<g clip-path="url(#clip4_405_51)">
<g clip-path="url(#clip5_405_51)">
<g clip-path="url(#clip6_405_51)">
<path d="M57.3934 2.1062H71.2315C74.204 2.1062 76.7426 2.55213 78.8463 3.4429C80.9576 4.33366 82.5682 5.65612 83.6781 7.40917C84.7957 9.15455 85.3545 11.302 85.3545 13.8516C85.3545 15.8161 84.9962 17.5363 84.2807 19.0121C83.5653 20.4946 82.5529 21.7403 81.2458 22.7483C79.9387 23.7563 78.3894 24.5342 76.6002 25.0821L74.5184 26.1558H62.1814L62.1376 20.6228H71.2863C72.8717 20.6228 74.193 20.3456 75.2525 19.7901C76.312 19.2346 77.1042 18.4786 77.6301 17.5221C78.156 16.5579 78.419 15.4589 78.419 14.2241C78.419 12.23 77.846 10.6381 76.6988 9.44708C75.5451 8.26378 73.7219 7.67213 71.2315 7.67213H64.296V41.0567H57.3934V2.1062ZM79.5146 41.0567L70.4207 23.592L77.6739 23.5591L86.8993 40.7061V41.0567H79.5146ZM117.534 18.2671V23.833H97.0451V18.2671H117.534ZM98.7543 2.1062V41.0567H91.8517V2.1062H98.7543ZM122.859 2.1062V41.0567H115.978V2.1062H122.859ZM152.463 2.1062H159.366V28.0513C159.366 31.0315 158.719 33.5263 157.427 35.5346C156.134 37.5429 154.381 39.055 152.167 40.0706C149.962 41.0863 147.492 41.5936 144.761 41.5936C141.964 41.5936 139.461 41.0863 137.256 40.0706C135.057 39.055 133.33 37.5429 132.073 35.5346C130.816 33.5263 130.189 31.0315 130.189 28.0513V2.1062H137.058V28.0513C137.058 29.892 137.368 31.4007 137.99 32.5763C138.618 33.752 139.513 34.6252 140.674 35.195C141.828 35.7647 143.191 36.0496 144.761 36.0496C146.368 36.0496 147.741 35.7647 148.881 35.195C150.02 34.6252 150.904 33.752 151.532 32.5763C152.153 31.4007 152.463 29.892 152.463 28.0513V2.1062ZM181.246 23.5591H171.374L171.32 18.5301H179.942C182.097 18.5301 183.763 18.0589 184.938 17.1167C186.114 16.1744 186.702 14.8377 186.702 13.1066C186.702 11.1925 186.147 9.80865 185.037 8.95404C183.92 8.09943 182.192 7.67213 179.855 7.67213H173.467V41.0567H166.564V2.1062H179.855C184.157 2.1062 187.524 2.95752 189.957 4.65907C192.389 6.36829 193.605 9.03074 193.605 12.6464C193.605 14.2537 193.218 15.7252 192.444 17.0619C191.669 18.3986 190.523 19.4866 189.003 20.3269C187.491 21.1673 185.604 21.656 183.339 21.7951L181.246 23.5591ZM180.95 41.0567H169.183L172.317 35.5237H180.95C183.164 35.5237 184.832 34.9791 185.957 33.8911C187.083 32.8031 187.645 31.393 187.645 29.6619C187.645 28.3986 187.422 27.3095 186.976 26.3969C186.53 25.4908 185.845 24.7895 184.917 24.2932C183.989 23.8034 182.766 23.5591 181.246 23.5591H173.653L173.708 18.5301H183.547L185.103 20.4584C187.258 20.4946 189.025 20.9515 190.406 21.828C191.794 22.6968 192.824 23.8221 193.496 25.2026C194.175 26.5908 194.515 28.0842 194.515 29.6838C194.515 33.4167 193.317 36.2435 190.921 38.1642C188.518 40.0925 185.194 41.0567 180.95 41.0567ZM216.077 7.65021L204.518 41.0567H197.276L211.924 2.1062H216.526L216.077 7.65021ZM225.653 41.0567L214.072 7.65021L213.557 2.1062H218.192L232.906 41.0567H225.653ZM225.193 26.5831V32.149H203.981V26.5831H225.193ZM237.212 2.1062H251.039C254.02 2.1062 256.561 2.55213 258.665 3.4429C260.769 4.33366 262.376 5.65612 263.486 7.40917C264.604 9.15455 265.162 11.302 265.162 13.8516C265.162 15.8161 264.804 17.5363 264.089 19.0121C263.38 20.4946 262.368 21.7403 261.054 22.7483C259.746 23.7563 258.202 24.5342 256.419 25.0821L254.326 26.1558H242L241.945 20.6228H251.094C252.68 20.6228 254.001 20.3456 255.06 19.7901C256.12 19.2346 256.915 18.4786 257.449 17.5221C257.975 16.5579 258.238 15.4589 258.238 14.2241C258.238 12.23 257.66 10.6381 256.507 9.44708C255.359 8.26378 253.537 7.67213 251.039 7.67213H244.104V41.0567H237.212V2.1062ZM259.333 41.0567L250.24 23.592L257.482 23.5591L266.707 40.7061V41.0567H259.333ZM286.341 23.5591H276.48L276.426 18.5301H285.037C287.193 18.5301 288.858 18.0589 290.034 17.1167C291.209 16.1744 291.798 14.8377 291.798 13.1066C291.798 11.1925 291.242 9.80865 290.132 8.95404C289.015 8.09943 287.287 7.67213 284.95 7.67213H278.562V41.0567H271.66V2.1062H284.95C289.252 2.1062 292.619 2.95752 295.052 4.65907C297.484 6.36829 298.7 9.03074 298.7 12.6464C298.7 14.2537 298.314 15.7252 297.539 17.0619C296.764 18.3986 295.618 19.4866 294.099 20.3269C292.587 21.1673 290.699 21.656 288.434 21.7951L286.341 23.5591ZM286.056 41.0567H274.278L277.412 35.5237H286.056C288.262 35.5237 289.927 34.9791 291.053 33.8911C292.178 32.8031 292.74 31.393 292.74 29.6619C292.74 28.3986 292.518 27.3095 292.072 26.3969C291.626 25.4908 290.94 24.7895 290.012 24.2932C289.084 23.8034 287.861 23.5591 286.341 23.5591H278.748L278.803 18.5301H288.642L290.198 20.4584C292.353 20.4946 294.124 20.9515 295.512 21.828C296.892 22.6968 297.922 23.8221 298.602 25.2026C299.273 26.5908 299.61 28.0842 299.61 29.6838C299.61 33.4167 298.412 36.2435 296.016 38.1642C293.62 40.0925 290.3 41.0567 286.056 41.0567Z" fill="#FCEAE5"/>
<path d="M64.7233 45.4065V84.357H57.8535V45.4065H64.7233ZM103.97 45.4065V84.357H97.0451L79.8652 56.9109V84.357H72.9626V45.4065H79.8652L97.0889 72.9074V45.4065H103.97ZM134.758 71.6255H141.66C141.449 74.1751 140.729 76.4541 139.502 78.4624C138.282 80.4642 136.576 82.0375 134.385 83.1847C132.194 84.3241 129.509 84.8939 126.332 84.8939C123.118 84.8939 120.331 84.1412 117.972 82.6368C115.613 81.1248 113.794 78.9883 112.516 76.2273C111.237 73.4585 110.598 70.1935 110.598 66.4321V63.3533C110.598 59.5766 111.252 56.3115 112.56 53.5582C113.86 50.8048 115.707 48.6683 118.104 47.1486C120.506 45.6289 123.338 44.8696 126.595 44.8696C129.721 44.8696 132.358 45.447 134.506 46.6008C136.653 47.7479 138.318 49.3366 139.502 51.3669C140.693 53.3905 141.411 55.7133 141.66 58.3352H134.779C134.516 55.8514 133.782 53.923 132.577 52.5502C131.372 51.1773 129.378 50.4903 126.595 50.4903C124.579 50.4903 122.91 50.9867 121.588 51.9804C120.259 52.9665 119.254 54.4095 118.575 56.3083C117.895 58.207 117.556 60.5408 117.556 63.3095V66.4321C117.556 69.0759 117.859 71.3549 118.465 73.269C119.071 75.1831 120.018 76.6622 121.303 77.7064C122.588 78.7505 124.264 79.2732 126.332 79.2732C128.224 79.2732 129.754 78.9806 130.923 78.3967C132.092 77.805 132.979 76.9427 133.585 75.8109C134.191 74.6791 134.582 73.2832 134.758 71.6255ZM147.281 81.0372C147.281 79.9854 147.624 79.1088 148.311 78.4076C148.998 77.6987 149.936 77.3448 151.127 77.3448C152.34 77.3448 153.288 77.6987 153.975 78.4076C154.662 79.1088 155.005 79.9854 155.005 81.0372C155.005 82.0529 154.662 82.9107 153.975 83.612C153.288 84.3055 152.34 84.6528 151.127 84.6528C149.936 84.6528 148.998 84.3055 148.311 83.612C147.624 82.9107 147.281 82.0529 147.281 81.0372Z" fill="#FCEAE5"/>
</g>
</g>
</g>
</g>
<g clip-path="url(#clip7_405_51)">
<g clip-path="url(#clip8_405_51)">
<path d="M34.0037 48.9899C33.415 47.4491 32.5665 46.0828 31.4763 44.8981C30.3862 43.6844 29.0416 42.7359 27.4845 42.0346C25.9201 41.3278 24.2231 40.9753 22.3498 40.9753C21.9374 40.979 21.6121 41.0407 20.8836 41.1243L19.1084 33.4659C26.3798 27.0266 28.3203 19.7916 28.313 13.981C28.2949 7.19649 26.4925 2.52876 23.7034 0.839C22.9512 0.397482 22.0028 0.197618 21.0907 0.195801C20.2567 0.197618 19.4554 0.361143 18.8413 0.760871C17.624 1.57305 16.552 2.74861 15.6398 4.27848C14.7096 5.80289 14.0028 7.56533 13.5158 9.59486C13.0053 11.6189 12.7382 13.7938 12.7182 16.1104C12.8345 19.628 13.4068 23.0675 14.4388 26.4434C12.1077 28.5347 10.2453 30.2699 8.80995 31.6271C7.33278 33.068 5.91374 34.6705 4.54195 36.4202C3.15562 38.1881 2.37615 40.085 1.5022 42.0891C0.620979 44.0877 0.390228 46.2208 0.390228 48.4321V48.4575C0.390228 50.8486 0.595544 53.1579 1.57488 55.351C2.56875 57.5422 3.67526 59.7008 5.47586 61.4487C7.29825 63.2002 9.30416 64.3467 11.6462 65.3079C14.0246 66.289 16.6119 66.7632 19.2683 66.7632C20.6873 66.7632 22.0264 66.627 23.3419 66.3635C23.5436 67.2102 23.8288 68.3258 24.2122 69.6976C24.6628 71.3383 24.9917 72.6683 25.2006 73.6494C25.4096 74.6379 25.5204 75.6208 25.524 76.5984C25.524 78.0628 25.3333 79.2111 24.9699 79.9779L24.9499 80.0124L24.939 80.0487C24.7573 80.6919 24.303 81.3424 23.5581 81.9801C22.8204 82.6161 21.9501 83.1139 20.8745 83.5027C19.8243 83.8643 18.7813 84.066 17.7693 84.066C16.2376 84.0605 15.1002 83.7171 14.2808 83.0649C15.6071 82.9631 16.7682 82.4853 17.6875 81.644C18.7323 80.7046 19.2774 79.4927 19.2756 78.1264C19.2756 77.1035 18.9885 76.1478 18.4688 75.2992C17.9201 74.4398 17.1897 73.7694 16.3176 73.2733L16.3139 73.2679L16.303 73.4877C15.4109 73.0099 14.4443 72.9754 13.4341 72.9754H13.4232H13.4032C12.2204 72.9754 11.2919 73.1352 9.47495 73.7639V73.6513C9.47495 74.2436 8.45201 74.9722 7.94145 75.9243C7.43452 76.8727 7.65801 77.8157 7.65801 78.8732V78.8986V78.9277C7.65801 81.3097 8.72092 83.2393 10.7777 84.6093C12.8 85.9447 15.0929 86.8041 17.8184 86.8041C19.7425 86.8023 21.6485 86.4226 23.2765 85.6667C24.9154 84.9163 26.5015 83.7135 27.5027 82.3072C28.2513 81.2079 28.9544 79.0367 28.9617 76.6619C28.9617 75.8352 28.8618 74.9849 28.6419 74.1546C28.4184 73.0898 26.9194 67.2393 26.5179 65.4623C29.3541 64.4593 31.1402 62.9131 32.5883 60.8945C34.1218 58.7669 34.894 56.3758 34.8904 53.7884C34.8904 52.1168 34.5688 50.5161 34.0037 48.9899ZM16.7591 14.8004C18.1073 9.00799 21.1252 8.04864 22.3026 8.03592C22.973 8.03955 23.4418 8.34117 23.7961 8.75543C24.1504 9.16243 24.3466 9.70024 24.3775 9.96915L24.3812 10.0019L24.3884 10.0309C24.4956 10.4434 24.5411 10.9376 24.5411 11.4372C24.5411 12.5983 24.2921 13.8756 23.7598 15.2238C23.2274 16.6101 22.5043 17.9746 21.5958 19.3246C21.167 19.966 20.1223 21.256 19.1084 22.417C18.6015 22.9966 18.0927 23.549 17.6694 23.976C17.5513 24.0995 17.435 24.214 17.3278 24.3157C17.0135 22.7223 16.5756 19.4354 16.5774 16.9844C16.5792 16.1086 16.6355 15.3328 16.7591 14.8004ZM19.6916 63.9252C15.3001 63.9379 10.5996 62.1991 8.63916 60.4421C7.30552 59.2356 6.25714 58.2654 5.64483 56.9154C5.00164 55.5345 4.66005 54.0991 4.61281 52.6219C4.71092 49.2769 5.86287 46.1954 8.11588 43.3264C10.2708 40.5629 13.0198 37.9229 16.3921 35.3755L17.7911 41.7639C15.6398 42.5924 13.5231 43.9388 12.1241 45.7811C10.6596 47.7089 9.47495 49.8438 9.47495 52.1186V52.1459C9.47495 54.279 10.6214 56.185 12.0732 57.8202C13.5213 59.4409 15.5744 60.5329 17.8347 61.038L18.0219 61.0635L18.1636 61.0398C18.3925 60.9926 18.5924 60.9363 18.7559 60.8509C18.9013 60.7728 19.1357 60.6074 19.1466 60.2822C19.1538 60.0224 19.0412 59.7407 18.8359 59.5627C18.6451 59.3882 18.4089 59.2938 18.1454 59.2356C16.8863 58.7378 15.9505 57.9856 15.3219 56.9499C14.6587 55.8761 14.3389 54.8931 14.3407 54.0809C14.3425 52.7291 14.8713 51.4845 16.0214 50.3035C17.048 49.266 18.1291 48.5611 19.301 48.1777L22.7823 63.6108C21.7957 63.827 20.7527 63.9252 19.6916 63.9252ZM31.2783 55.1184C31.2783 57.346 30.8241 59.1884 29.9574 60.6619C29.0907 62.1409 27.6571 63.2147 25.7457 63.8943L25.2133 64.076L21.3614 47.798L21.2142 47.5381H21.8138C23.5926 47.5381 24.7845 47.5908 26.1472 48.2867C27.5481 49.0008 28.671 49.8311 29.4941 51.0739C30.3498 52.3058 30.9494 53.6104 31.1729 55.1311L31.2783 55.0839V55.1184Z" fill="#FF851B"/>
</g>
</g>
</g>
</g>
</g>
<defs>
<clipPath id="clip0_405_51">
<rect width="300" height="87" fill="white"/>
</clipPath>
<clipPath id="clip1_405_51">
<rect width="299.219" height="87.0414" fill="white" transform="translate(0.390228 -0.020752)"/>
</clipPath>
<clipPath id="clip2_405_51">
<rect width="299.219" height="87.0414" fill="white" transform="translate(0.390228 -0.020752)"/>
</clipPath>
<clipPath id="clip3_405_51">
<rect width="242.216" height="86.6083" fill="white" transform="translate(57.3934 0.195801)"/>
</clipPath>
<clipPath id="clip4_405_51">
<rect width="242.216" height="86.6083" fill="white" transform="translate(57.3934 0.195801)"/>
</clipPath>
<clipPath id="clip5_405_51">
<rect width="242.216" height="86.6083" fill="white" transform="translate(57.3934 0.195801)"/>
</clipPath>
<clipPath id="clip6_405_51">
<rect width="242.216" height="86.6083" fill="white" transform="translate(57.3934 0.195801)"/>
</clipPath>
<clipPath id="clip7_405_51">
<rect width="34.5002" height="86.6083" fill="white" transform="translate(0.390228 0.195801)"/>
</clipPath>
<clipPath id="clip8_405_51">
<rect width="34.5002" height="86.6083" fill="white" transform="translate(0.390228 0.195801)"/>
</clipPath>
</defs>
</svg>
