<svg width="49" height="47" viewBox="0 0 49 47" fill="none" xmlns="http://www.w3.org/2000/svg">
<path d="M14.21 0H34.79C42.63 0 49 6.11 49 13.63V33.37C49 36.9849 47.5029 40.4517 44.838 43.0079C42.1731 45.564 38.5587 47 34.79 47H14.21C6.37 47 0 40.89 0 33.37V13.63C0 10.0151 1.49712 6.54826 4.16201 3.99213C6.8269 1.43601 10.4413 0 14.21 0ZM13.72 4.7C11.3808 4.7 9.13739 5.59132 7.48332 7.17788C5.82925 8.76443 4.9 10.9163 4.9 13.16V33.84C4.9 38.5165 8.8445 42.3 13.72 42.3H35.28C37.6192 42.3 39.8626 41.4087 41.5167 39.8221C43.1708 38.2356 44.1 36.0837 44.1 33.84V13.16C44.1 8.4835 40.1555 4.7 35.28 4.7H13.72ZM37.3625 8.225C38.1747 8.225 38.9537 8.53449 39.528 9.08537C40.1023 9.63626 40.425 10.3834 40.425 11.1625C40.425 11.9416 40.1023 12.6887 39.528 13.2396C38.9537 13.7905 38.1747 14.1 37.3625 14.1C36.5503 14.1 35.7713 13.7905 35.197 13.2396C34.6227 12.6887 34.3 11.9416 34.3 11.1625C34.3 10.3834 34.6227 9.63626 35.197 9.08537C35.7713 8.53449 36.5503 8.225 37.3625 8.225ZM24.5 11.75C27.7489 11.75 30.8647 12.9879 33.1621 15.1915C35.4594 17.395 36.75 20.3837 36.75 23.5C36.75 26.6163 35.4594 29.605 33.1621 31.8085C30.8647 34.0121 27.7489 35.25 24.5 35.25C21.2511 35.25 18.1353 34.0121 15.8379 31.8085C13.5406 29.605 12.25 26.6163 12.25 23.5C12.25 20.3837 13.5406 17.395 15.8379 15.1915C18.1353 12.9879 21.2511 11.75 24.5 11.75ZM24.5 16.45C22.5507 16.45 20.6812 17.1928 19.3028 18.5149C17.9244 19.837 17.15 21.6302 17.15 23.5C17.15 25.3698 17.9244 27.163 19.3028 28.4851C20.6812 29.8072 22.5507 30.55 24.5 30.55C26.4493 30.55 28.3188 29.8072 29.6972 28.4851C31.0756 27.163 31.85 25.3698 31.85 23.5C31.85 21.6302 31.0756 19.837 29.6972 18.5149C28.3188 17.1928 26.4493 16.45 24.5 16.45Z" fill="white"/>
</svg>
