<svg width="154" height="45" viewBox="0 0 154 45" fill="none" xmlns="http://www.w3.org/2000/svg">
<g clip-path="url(#clip0_398_6)">
<g clip-path="url(#clip1_398_6)">
<g clip-path="url(#clip2_398_6)">
<path d="M24.6124 1.52537C24.6124 0.677067 24.1977 -0.0106201 23.6862 -0.0106201C23.1746 -0.0106201 22.7599 0.677067 22.7599 1.52537V43.1346C22.7599 43.9829 23.1746 44.6706 23.6862 44.6706C24.1977 44.6706 24.6124 43.9829 24.6124 43.1346V1.52537Z" fill="#AC7364"/>
<g clip-path="url(#clip3_398_6)">
<g clip-path="url(#clip4_398_6)">
<g clip-path="url(#clip5_398_6)">
<g clip-path="url(#clip6_398_6)">
<path d="M29.4619 1.08118H36.5655C38.0914 1.08118 39.3946 1.31009 40.4744 1.76735C41.5583 2.22461 42.385 2.90347 42.9548 3.80337C43.5285 4.69933 43.8153 5.8017 43.8153 7.11049C43.8153 8.11894 43.6314 9.00196 43.2641 9.75956C42.8969 10.5205 42.3772 11.16 41.7062 11.6775C41.0352 12.1949 40.2399 12.5942 39.3214 12.8755L38.2528 13.4266H31.9198L31.8973 10.5863H36.5936C37.4075 10.5863 38.0858 10.444 38.6297 10.1589C39.1735 9.87374 39.5802 9.48566 39.8501 8.99465C40.1201 8.49971 40.2551 7.93558 40.2551 7.30172C40.2551 6.27808 39.9609 5.46086 39.3721 4.8495C38.7798 4.24207 37.8439 3.93835 36.5655 3.93835H33.0053V21.0758H29.4619V1.08118ZM40.8175 21.0758L36.1493 12.1105L39.8726 12.0937L44.6083 20.8958V21.0758H40.8175ZM60.3341 9.37711V12.2343H49.8165V9.37711H60.3341ZM50.6939 1.08118V21.0758H47.1506V1.08118H50.6939ZM63.0675 1.08118V21.0758H59.5354V1.08118H63.0675ZM78.2645 1.08118H81.8079V14.3997C81.8079 15.9295 81.476 17.2102 80.8123 18.2411C80.1487 19.272 79.2488 20.0482 78.1127 20.5696C76.9805 21.091 75.7127 21.3514 74.3106 21.3514C72.8747 21.3514 71.5901 21.091 70.4579 20.5696C69.3291 20.0482 68.4427 19.272 67.7976 18.2411C67.1525 17.2102 66.8302 15.9295 66.8302 14.3997V1.08118H70.3567V14.3997C70.3567 15.3446 70.5158 16.119 70.8347 16.7225C71.157 17.326 71.6165 17.7743 72.2127 18.0667C72.8049 18.3592 73.5046 18.5054 74.3106 18.5054C75.1357 18.5054 75.8404 18.3592 76.4253 18.0667C77.0103 17.7743 77.4642 17.326 77.7864 16.7225C78.1053 16.119 78.2645 15.3446 78.2645 14.3997V1.08118ZM93.0397 12.0937H87.9722L87.944 9.51209H92.3704C93.4767 9.51209 94.3316 9.27024 94.9351 8.78655C95.5386 8.30285 95.8406 7.61668 95.8406 6.72803C95.8406 5.74546 95.5555 5.0351 94.9857 4.5964C94.412 4.1577 93.5251 3.93835 92.3254 3.93835H89.0464V21.0758H85.5031V1.08118H92.3254C94.5341 1.08118 96.2625 1.51819 97.5111 2.39165C98.7597 3.26905 99.384 4.63577 99.384 6.49181C99.384 7.3169 99.1854 8.07226 98.7878 8.75843C98.3902 9.4446 97.8018 10.0031 97.0218 10.4345C96.2456 10.8659 95.2765 11.1167 94.114 11.1882L93.0397 12.0937ZM92.8878 21.0758H86.8473L88.4558 18.2355H92.8878C94.024 18.2355 94.8806 17.9559 95.4582 17.3974C96.0358 16.8389 96.3243 16.1151 96.3243 15.2264C96.3243 14.578 96.2102 14.0189 95.9812 13.5504C95.7523 13.0852 95.4002 12.7253 94.9239 12.4705C94.4475 12.2191 93.8198 12.0937 93.0397 12.0937H89.142L89.1701 9.51209H94.2208L95.0195 10.502C96.1258 10.5205 97.033 10.7551 97.7417 11.205C98.4543 11.651 98.983 12.2287 99.3277 12.9373C99.6764 13.6499 99.8508 14.4165 99.8508 15.2377C99.8508 17.1539 99.2361 18.605 98.006 19.5909C96.7726 20.5808 95.0662 21.0758 92.8878 21.0758ZM110.92 3.9271L104.986 21.0758H101.268L108.788 1.08118H111.15L110.92 3.9271ZM115.835 21.0758L109.89 3.9271L109.626 1.08118H112.005L119.559 21.0758H115.835ZM115.599 13.646V16.5032H104.71V13.646H115.599ZM121.769 1.08118H128.867C130.397 1.08118 131.702 1.31009 132.781 1.76735C133.861 2.22461 134.686 2.90347 135.256 3.80337C135.83 4.69933 136.117 5.8017 136.117 7.11049C136.117 8.11894 135.933 9.00196 135.565 9.75956C135.202 10.5205 134.682 11.16 134.008 11.6775C133.337 12.1949 132.544 12.5942 131.628 12.8755L130.554 13.4266H124.227L124.199 10.5863H128.895C129.709 10.5863 130.387 10.444 130.931 10.1589C131.475 9.87374 131.883 9.48566 132.157 8.99465C132.427 8.49971 132.562 7.93558 132.562 7.30172C132.562 6.27808 132.266 5.46086 131.673 4.8495C131.085 4.24207 130.149 3.93835 128.867 3.93835H125.307V21.0758H121.769V1.08118ZM133.125 21.0758L128.456 12.1105L132.174 12.0937L136.91 20.8958V21.0758H133.125ZM146.989 12.0937H141.927L141.899 9.51209H146.319C147.426 9.51209 148.28 9.27024 148.884 8.78655C149.487 8.30285 149.789 7.61668 149.789 6.72803C149.789 5.74546 149.504 5.0351 148.935 4.5964C148.361 4.1577 147.474 3.93835 146.274 3.93835H142.995V21.0758H139.452V1.08118H146.274C148.483 1.08118 150.211 1.51819 151.46 2.39165C152.709 3.26905 153.333 4.63577 153.333 6.49181C153.333 7.3169 153.134 8.07226 152.737 8.75843C152.339 9.4446 151.751 10.0031 150.971 10.4345C150.194 10.8659 149.225 11.1167 148.063 11.1882L146.989 12.0937ZM146.842 21.0758H140.796L142.405 18.2355H146.842C147.975 18.2355 148.829 17.9559 149.407 17.3974C149.985 16.8389 150.273 16.1151 150.273 15.2264C150.273 14.578 150.159 14.0189 149.93 13.5504C149.701 13.0852 149.349 12.7253 148.873 12.4705C148.396 12.2191 147.769 12.0937 146.989 12.0937H143.091L143.119 9.51209H148.17L148.968 10.502C150.075 10.5205 150.984 10.7551 151.696 11.205C152.405 11.651 152.934 12.2287 153.282 12.9373C153.627 13.6499 153.8 14.4165 153.8 15.2377C153.8 17.1539 153.185 18.605 151.955 19.5909C150.725 20.5808 149.021 21.0758 146.842 21.0758Z" fill="#FCEAE5"/>
<path d="M33.2247 23.3087V43.3033H29.6982V23.3087H33.2247ZM53.3711 23.3087V43.3033H49.8165L40.9975 29.2143V43.3033H37.4542V23.3087H40.9975L49.839 37.4258V23.3087H53.3711ZM69.1756 36.7678H72.7189C72.6104 38.0766 72.2408 39.2464 71.6109 40.2774C70.9849 41.3049 70.1092 42.1126 68.9843 42.7015C67.8595 43.2864 66.4815 43.5789 64.8504 43.5789C63.2008 43.5789 61.77 43.1925 60.559 42.4202C59.3481 41.6441 58.4145 40.5473 57.7581 39.13C57.1017 37.7087 56.7738 36.0327 56.7738 34.1018V32.5214C56.7738 30.5827 57.1096 28.9066 57.7806 27.4932C58.4482 26.0798 59.3965 24.983 60.6265 24.2029C61.86 23.4228 63.3133 23.0331 64.9854 23.0331C66.59 23.0331 67.9438 23.3295 69.0462 23.9217C70.1486 24.5106 71.0035 25.3261 71.6109 26.3683C72.2223 27.4071 72.5912 28.5995 72.7189 29.9454H69.1868C69.0518 28.6704 68.675 27.6805 68.0563 26.9758C67.4376 26.271 66.414 25.9184 64.9854 25.9184C63.9505 25.9184 63.0939 26.1732 62.4151 26.6833C61.7328 27.1895 61.2171 27.9302 60.8684 28.9049C60.5197 29.8796 60.3453 31.0776 60.3453 32.4989V34.1018C60.3453 35.459 60.5011 36.6288 60.8121 37.6114C61.1232 38.594 61.6091 39.3533 62.2688 39.8893C62.9286 40.4253 63.7891 40.6936 64.8504 40.6936C65.8218 40.6936 66.6069 40.5434 67.207 40.2436C67.8072 39.9399 68.2627 39.4973 68.5738 38.9163C68.8848 38.3353 69.0856 37.6187 69.1756 36.7678ZM75.6042 41.5991C75.6042 41.0592 75.7802 40.6092 76.1329 40.2492C76.4855 39.8853 76.967 39.7037 77.5784 39.7037C78.201 39.7037 78.688 39.8853 79.0407 40.2492C79.3933 40.6092 79.5694 41.0592 79.5694 41.5991C79.5694 42.1205 79.3933 42.5609 79.0407 42.9208C78.688 43.2768 78.201 43.4551 77.5784 43.4551C76.967 43.4551 76.4855 43.2768 76.1329 42.9208C75.7802 42.5609 75.6042 42.1205 75.6042 41.5991Z" fill="#FCEAE5"/>
</g>
</g>
</g>
</g>
<g clip-path="url(#clip7_398_6)">
<g clip-path="url(#clip8_398_6)">
<path d="M17.4552 25.1481C17.153 24.3572 16.7175 23.6558 16.1579 23.0477C15.5982 22.4247 14.908 21.9378 14.1087 21.5778C13.3057 21.215 12.4345 21.034 11.4729 21.034C11.2612 21.0359 11.0942 21.0676 10.7202 21.1105L9.80898 17.1792C13.5416 13.8737 14.5378 10.1597 14.534 7.17691C14.5247 3.69421 13.5995 1.29811 12.1678 0.4307C11.7816 0.204055 11.2948 0.101458 10.8266 0.100525C10.3984 0.101458 9.98712 0.185401 9.67187 0.390594C9.04696 0.80751 8.49667 1.41097 8.02846 2.1963C7.55091 2.97883 7.1881 3.88355 6.93813 4.92537C6.67604 5.9644 6.53894 7.08084 6.52868 8.27003C6.58837 10.0757 6.88217 11.8413 7.41194 13.5743C6.21529 14.6478 5.25927 15.5386 4.52244 16.2353C3.76416 16.9749 3.03572 17.7975 2.33153 18.6957C1.61988 19.6033 1.21976 20.577 0.771128 21.6058C0.31877 22.6317 0.200317 23.7267 0.200317 24.8618V24.8749C0.200317 26.1023 0.305713 27.2878 0.808437 28.4135C1.31862 29.5384 1.88664 30.6464 2.81094 31.5437C3.74644 32.4428 4.77614 33.0313 5.97838 33.5247C7.19929 34.0284 8.52745 34.2718 9.89105 34.2718C10.6195 34.2718 11.3069 34.2019 11.9822 34.0666C12.0857 34.5012 12.2321 35.0739 12.4289 35.7781C12.6602 36.6203 12.8291 37.3031 12.9363 37.8067C13.0436 38.3141 13.1005 38.8187 13.1023 39.3205C13.1023 40.0723 13.0044 40.6617 12.8179 41.0553L12.8076 41.073L12.802 41.0917C12.7087 41.4219 12.4756 41.7558 12.0932 42.0832C11.7145 42.4096 11.2677 42.6652 10.7156 42.8648C10.1765 43.0504 9.64109 43.1539 9.12158 43.1539C8.33531 43.1511 7.75144 42.9748 7.3308 42.64C8.01167 42.5877 8.60766 42.3424 9.07961 41.9106C9.61591 41.4284 9.89572 40.8063 9.89478 40.1049C9.89478 39.5798 9.74742 39.0892 9.48067 38.6536C9.19899 38.2125 8.82405 37.8683 8.37635 37.6137L8.37449 37.6109L8.36889 37.7237C7.91094 37.4784 7.41474 37.4607 6.89616 37.4607H6.89056H6.8803C6.27312 37.4607 5.79651 37.5428 4.86381 37.8655V37.8077C4.86381 38.1117 4.3387 38.4857 4.07661 38.9745C3.81639 39.4613 3.93111 39.9454 3.93111 40.4882V40.5013V40.5162C3.93111 41.739 4.47674 42.7295 5.53255 43.4328C6.57065 44.1183 7.74771 44.5595 9.14676 44.5595C10.1345 44.5585 11.1129 44.3636 11.9486 43.9756C12.7899 43.5904 13.6041 42.9729 14.118 42.251C14.5023 41.6868 14.8633 40.5722 14.867 39.3531C14.867 38.9288 14.8157 38.4923 14.7028 38.066C14.5881 37.5195 13.8186 34.5162 13.6125 33.604C15.0685 33.0891 15.9853 32.2954 16.7287 31.2592C17.5159 30.167 17.9123 28.9396 17.9104 27.6114C17.9104 26.7533 17.7453 25.9316 17.4552 25.1481ZM8.603 7.59756C9.29506 4.62411 10.8443 4.13165 11.4487 4.12512C11.7928 4.12698 12.0335 4.28181 12.2153 4.49447C12.3972 4.70339 12.4979 4.97947 12.5138 5.11751L12.5157 5.1343L12.5194 5.14922C12.5744 5.36094 12.5977 5.61464 12.5977 5.87113C12.5977 6.46712 12.47 7.12281 12.1967 7.81487C11.9234 8.52652 11.5522 9.22698 11.0858 9.91998C10.8657 10.2492 10.3294 10.9114 9.80898 11.5074C9.54875 11.805 9.2876 12.0885 9.07028 12.3077C9.00965 12.3711 8.94996 12.4299 8.89493 12.4821C8.73358 11.6641 8.5088 9.97687 8.50973 8.71866C8.51066 8.2691 8.53958 7.87084 8.603 7.59756ZM10.1084 32.8149C7.85404 32.8215 5.44115 31.9289 4.43477 31.0269C3.75017 30.4076 3.212 29.9096 2.89768 29.2166C2.56751 28.5077 2.39216 27.7709 2.36791 27.0126C2.41827 25.2955 3.00961 23.7137 4.16615 22.2409C5.27233 20.8223 6.6835 19.4671 8.41459 18.1594L9.13277 21.4388C8.02846 21.8641 6.94186 22.5552 6.22368 23.501C5.47193 24.4906 4.86381 25.5865 4.86381 26.7543V26.7682C4.86381 27.8632 5.45234 28.8416 6.19757 29.6811C6.94093 30.513 7.99488 31.0736 9.15516 31.3329L9.25122 31.3459L9.32397 31.3338C9.44149 31.3096 9.54409 31.2806 9.62803 31.2368C9.70265 31.1967 9.82297 31.1118 9.82856 30.9449C9.83229 30.8115 9.77447 30.6669 9.66907 30.5755C9.57114 30.486 9.44989 30.4375 9.31465 30.4076C8.66829 30.1521 8.18795 29.7659 7.86523 29.2343C7.5248 28.6831 7.36064 28.1785 7.36158 27.7616C7.36251 27.0676 7.63392 26.4287 8.22432 25.8225C8.7513 25.2899 9.30625 24.928 9.90784 24.7312L11.6949 32.6536C11.1884 32.7646 10.6531 32.8149 10.1084 32.8149ZM16.0562 28.2941C16.0562 29.4376 15.823 30.3834 15.3781 31.1398C14.9332 31.899 14.1973 32.4502 13.2161 32.7991L12.9428 32.8923L10.9655 24.5363L10.89 24.4029H11.1978C12.1109 24.4029 12.7227 24.43 13.4223 24.7872C14.1414 25.1537 14.7178 25.58 15.1403 26.2179C15.5796 26.8503 15.8874 27.52 16.0021 28.3007L16.0562 28.2764V28.2941Z" fill="#FF851B"/>
</g>
</g>
</g>
</g>
</g>
<defs>
<clipPath id="clip0_398_6">
<rect width="154" height="44.66" fill="white"/>
</clipPath>
<clipPath id="clip1_398_6">
<rect width="153.599" height="44.6812" fill="white" transform="translate(0.200317 -0.0106201)"/>
</clipPath>
<clipPath id="clip2_398_6">
<rect width="153.599" height="44.6812" fill="white" transform="translate(0.200317 -0.0106201)"/>
</clipPath>
<clipPath id="clip3_398_6">
<rect width="124.338" height="44.4589" fill="white" transform="translate(29.4619 0.100525)"/>
</clipPath>
<clipPath id="clip4_398_6">
<rect width="124.338" height="44.4589" fill="white" transform="translate(29.4619 0.100525)"/>
</clipPath>
<clipPath id="clip5_398_6">
<rect width="124.338" height="44.4589" fill="white" transform="translate(29.4619 0.100525)"/>
</clipPath>
<clipPath id="clip6_398_6">
<rect width="124.338" height="44.4589" fill="white" transform="translate(29.4619 0.100525)"/>
</clipPath>
<clipPath id="clip7_398_6">
<rect width="17.7101" height="44.4589" fill="white" transform="translate(0.200317 0.100525)"/>
</clipPath>
<clipPath id="clip8_398_6">
<rect width="17.7101" height="44.4589" fill="white" transform="translate(0.200317 0.100525)"/>
</clipPath>
</defs>
</svg>
