<svg width="22" height="20" viewBox="0 0 22 20" fill="none" xmlns="http://www.w3.org/2000/svg">
<path d="M4.617 2.22321C4.61669 2.81255 4.37318 3.37763 3.94004 3.79415C3.5069 4.21066 2.9196 4.44449 2.30735 4.4442C1.69509 4.4439 1.10804 4.20951 0.675328 3.79257C0.242617 3.37564 -0.000305837 2.81033 2.8898e-07 2.22099C0.000306415 1.63165 0.243816 1.06657 0.67696 0.650052C1.1101 0.233536 1.6974 -0.00029439 2.30965 2.78164e-07C2.92191 0.000294947 3.50896 0.234691 3.94167 0.651623C4.37438 1.06856 4.61731 1.63387 4.617 2.22321ZM4.68625 6.08966H0.0692552V20H4.68625V6.08966ZM11.9811 6.08966H7.3872V20H11.9349V12.7004C11.9349 8.63397 17.4407 8.25621 17.4407 12.7004V20H22V11.1894C22 4.3342 13.851 4.58975 11.9349 7.95622L11.9811 6.08966Z" fill="#A9A9A9"/>
</svg>
