<svg width="281" height="82" viewBox="0 0 281 82" fill="none" xmlns="http://www.w3.org/2000/svg">
<path d="M54.0668 29.4137C59.4029 33.2098 65.94 35.4437 73 35.4437V21.9225C71.6638 21.9226 70.3312 21.7839 69.0238 21.5088V32.1518C61.9644 32.1518 55.4284 29.9178 50.0906 26.1218V53.7153C50.0906 67.519 38.8478 78.7081 24.9793 78.7081C19.8049 78.7081 14.995 77.1509 11 74.4807C15.5595 79.1212 21.9193 82 28.9544 82C42.824 82 54.0674 70.8109 54.0674 57.0072V29.4131L54.0668 29.4137ZM58.972 15.7727C56.1665 12.7298 54.443 8.85302 54.0668 4.73918V3H50.2989C51.2472 8.38467 54.4823 12.9844 58.972 15.7727ZM19.7717 63.8878C18.2482 61.8997 17.4247 59.4672 17.4285 56.9664C17.4285 50.6534 22.5707 45.5346 28.9156 45.5346C30.0977 45.5346 31.2732 45.7144 32.3999 46.0702V32.2472C31.0831 32.0674 29.7542 31.9911 28.4254 32.0189V42.7788C27.2979 42.4229 26.1221 42.2423 24.9394 42.2432C18.5946 42.2432 13.4523 47.3615 13.4523 53.6756C13.4523 58.1396 16.0226 62.0047 19.7717 63.8878Z" fill="#FF004F"/>
<path d="M50.1191 26.2111C55.442 30.0218 61.9597 32.2639 69 32.2639V21.5797C65.1422 20.7531 61.6379 18.7403 58.9757 15.8221C54.4985 13.023 51.2725 8.40492 50.3268 3H40.4576V57.2142C40.4356 63.5344 35.3154 68.6519 29.0026 68.6519C25.2822 68.6519 21.9767 66.875 19.8836 64.123C16.1461 62.2326 13.5824 58.3526 13.5824 53.8713C13.5824 47.5334 18.7103 42.3948 25.0375 42.3948C26.2494 42.3948 27.4183 42.5842 28.5137 42.9325V32.1315C14.927 32.4128 4 43.5355 4 57.2147C4 64.0433 6.72111 70.2334 11.1375 74.7568C15.2594 77.531 20.1136 79.0085 25.0784 79C38.9082 79 50.1196 67.7671 50.1196 53.9107L50.1191 26.2111Z" fill="white"/>
<path d="M69 21.8657V18.9792C65.4545 18.9846 61.9791 17.9913 58.971 16.1126C61.6337 19.0295 65.1399 21.0405 69 21.8657ZM50.3176 3.30198C50.2273 2.78603 50.158 2.26663 50.1098 1.74505V0H36.4756V54.1712C36.4535 60.4852 31.3323 65.5987 25.0151 65.5987C23.2242 65.6015 21.4578 65.1827 19.8585 64.3759C21.9532 67.1257 25.2599 68.9006 28.9823 68.9006C35.2978 68.9006 40.4212 63.7878 40.4433 57.4726V3.30143L50.3176 3.30198ZM28.4937 32.4101V29.3372C27.3544 29.1813 26.2059 29.1032 25.056 29.1037C11.2179 29.1026 0 40.3264 0 54.1712C0 62.8505 4.40877 70.5002 11.1084 75C6.6897 70.4808 3.96718 64.2951 3.96718 57.4721C3.96718 43.8044 14.8993 32.6912 28.4937 32.4101Z" fill="#00F2EA"/>
<path d="M225.751 67C235.829 67 244 59.1651 244 49.5005C244 39.8365 235.829 32 225.751 32H223C233.079 32 241.25 39.8365 241.25 49.5005C241.25 59.1651 233.079 67 223 67H225.75H225.751Z" fill="#FF004F"/>
<path d="M223 32H220.251C210.172 32 202 39.8365 202 49.5005C202 59.1651 210.172 67 220.251 67H223C212.92 67 204.749 59.1651 204.749 49.5005C204.749 39.8365 212.92 32 223 32Z" fill="#00F2EA"/>
<path d="M146.297 24.0005V43.9363L156.545 33.8477H168.989L156.056 46.3399L170.454 66.9989H159.474L149.47 52.8247L146.297 55.7096V66.7591H136.048V24.0005H146.297ZM256.841 24.0005V43.9363L267.09 33.8477H279.535L266.601 46.3399L281 67H270.018L260.012 52.8258L256.841 55.7107V66.7602H246.589V24.0005H256.841ZM222.675 31.9264C232.514 31.9264 240.491 39.7793 240.491 49.4635C240.491 59.1482 232.514 66.9995 222.675 66.9995H222.433C212.594 66.9995 204.618 59.1482 204.618 49.4635C204.618 39.7793 212.594 31.9264 222.433 31.9264H222.675ZM119.456 24.0005L116.527 33.1293H107.987V66.7596H97.4912V32.8895H87V24H119.455L119.456 24.0005ZM205.352 24.0005L202.424 33.1293H193.884V66.7596H183.388V32.8895H172.897V24L205.352 24.0005ZM131.654 37.6935V66.7602H121.408V37.6935H131.654ZM222.556 40.937C217.772 40.937 213.891 44.7528 213.891 49.4635C213.891 54.1742 217.772 57.9917 222.556 57.9928C227.338 57.9928 231.218 54.1742 231.218 49.4635C231.218 44.7528 227.338 40.937 222.556 40.937ZM126.529 24.0005C129.361 24.0005 131.654 26.2597 131.654 29.0448C131.654 31.83 129.363 34.0891 126.529 34.0891C123.699 34.0881 121.408 31.8305 121.408 29.0448C121.408 26.2597 123.699 24.0005 126.529 24.0005Z" fill="white"/>
</svg>
