<svg width="254" height="79" viewBox="0 0 254 79" fill="none" xmlns="http://www.w3.org/2000/svg">
<path d="M39.5163 0C17.6927 0 0 17.6852 0 39.5002C0 61.3163 17.6927 79 39.5163 79C61.3425 79 79.0332 61.3163 79.0332 39.5002C79.0332 17.6867 61.3425 0.00198359 39.5159 0.00198359L39.5163 0ZM57.6387 56.9707C57.47 57.247 57.2485 57.4872 56.9869 57.6778C56.7252 57.8683 56.4286 58.0055 56.1138 58.0813C55.7991 58.1571 55.4725 58.1701 55.1528 58.1196C54.833 58.0691 54.5263 57.9561 54.2503 57.787C44.9724 52.1218 33.2924 50.8389 19.5372 53.9805C18.9002 54.1253 18.2319 54.0114 17.6789 53.6638C17.126 53.3162 16.7337 52.7634 16.5884 52.1268C16.5159 51.8116 16.5064 51.4852 16.5604 51.1664C16.6143 50.8475 16.7306 50.5424 16.9027 50.2686C17.0748 49.9947 17.2992 49.7575 17.5631 49.5705C17.8271 49.3834 18.1253 49.2503 18.4408 49.1787C33.4938 45.7406 46.4056 47.2209 56.8221 53.5842C57.0983 53.7529 57.3385 53.9744 57.529 54.236C57.7195 54.4976 57.8566 54.7941 57.9324 55.1087C58.0082 55.4232 58.0212 55.7496 57.9707 56.0692C57.9202 56.3888 57.8072 56.6953 57.6382 56.9712L57.6387 56.9707ZM62.4756 46.2152C61.5831 47.6642 59.6865 48.1219 58.2374 47.2303C47.6161 40.7043 31.4241 38.8139 18.8605 42.6264C18.0784 42.863 17.2344 42.7798 16.5136 42.3951C15.7928 42.0104 15.2541 41.3556 15.0158 40.5744C14.78 39.7927 14.8639 38.9496 15.2489 38.2296C15.634 37.5097 16.2889 36.9717 17.0701 36.7336C31.4216 32.3806 49.2626 34.4892 61.4606 41.9817C62.9092 42.8733 63.367 44.7697 62.4751 46.2157L62.4756 46.2152ZM62.8903 35.0153C50.1551 27.4539 29.1415 26.7586 16.9818 30.4481C15.0292 31.0402 12.9644 29.9383 12.3731 27.9865C12.0886 27.0488 12.1882 26.0366 12.6501 25.1723C13.112 24.3081 13.8983 23.6625 14.8362 23.3776C28.7948 19.1417 51.9996 19.9599 66.6626 28.6614C67.0805 28.9085 67.4455 29.2356 67.7367 29.624C68.028 30.0124 68.2397 30.4543 68.3598 30.9246C68.4799 31.3949 68.506 31.8842 68.4366 32.3646C68.3672 32.845 68.2037 33.3069 67.9554 33.724C66.9176 35.4795 64.643 36.0582 62.8923 35.0158L62.8903 35.0153ZM107.511 36.4644C100.688 34.8378 99.4752 33.6968 99.4752 31.2981C99.4752 29.0318 101.608 27.507 104.783 27.507C107.86 27.507 110.909 28.6654 114.108 31.0492C114.202 31.1211 114.325 31.1498 114.443 31.131C114.502 31.1225 114.559 31.102 114.61 31.0707C114.662 31.0394 114.706 30.998 114.741 30.949L118.072 26.2548C118.138 26.1618 118.166 26.0471 118.15 25.9343C118.134 25.8214 118.076 25.7188 117.987 25.6473C114.179 22.5941 109.894 21.1099 104.883 21.1099C97.5167 21.1099 92.3687 25.5288 92.3687 31.852C92.3687 38.6324 96.8087 41.0336 104.482 42.8867C111.008 44.3898 112.112 45.6489 112.112 47.9003C112.112 50.3956 109.884 51.9473 106.299 51.9473C102.316 51.9473 99.0645 50.6034 95.4311 47.4614C95.3405 47.385 95.224 47.3463 95.1056 47.3533C95.0467 47.3573 94.9891 47.3731 94.9363 47.3998C94.8836 47.4264 94.8367 47.4634 94.7986 47.5085L91.0615 51.9517C90.9864 52.0408 90.949 52.1556 90.9569 52.2718C90.9649 52.388 91.0177 52.4965 91.1041 52.5746C95.3319 56.3484 100.532 58.3389 106.147 58.3389C114.085 58.3389 119.214 54.0038 119.214 47.2918C119.228 41.6281 115.835 38.4916 107.525 36.4708L107.511 36.4644ZM137.173 29.738C133.733 29.738 130.912 31.0928 128.581 33.8688V30.7447C128.581 30.4977 128.382 30.2969 128.137 30.2969H122.026C121.908 30.2975 121.795 30.345 121.712 30.4289C121.629 30.5127 121.582 30.6261 121.583 30.7442V65.4615C121.583 65.7065 121.781 65.9093 122.026 65.9093H128.137C128.255 65.9084 128.368 65.8608 128.451 65.7768C128.534 65.6929 128.581 65.5796 128.581 65.4615V54.5036C130.912 57.1121 133.733 58.3905 137.173 58.3905C143.568 58.3905 150.042 53.4712 150.042 44.066C150.051 34.6588 143.576 29.7375 137.178 29.7375L137.173 29.738ZM142.935 44.066C142.935 48.8529 139.986 52.1972 135.758 52.1972C131.581 52.1972 128.429 48.7021 128.429 44.066C128.429 39.4293 131.581 35.9347 135.758 35.9347C139.915 35.9347 142.935 39.3535 142.935 44.066ZM166.628 29.738C158.394 29.738 151.943 36.0756 151.943 44.1686C151.943 52.1739 158.351 58.4426 166.529 58.4426C174.791 58.4426 181.261 52.1268 181.261 44.066C181.261 36.0324 174.834 29.7395 166.628 29.7395V29.738ZM166.628 52.2443C162.249 52.2443 158.946 48.7254 158.946 44.0635C158.946 39.3802 162.136 35.9814 166.529 35.9814C170.936 35.9814 174.258 39.4988 174.258 44.1656C174.258 48.8484 171.049 52.2443 166.628 52.2443ZM198.843 30.2969H192.119V23.4262C192.119 23.1798 191.92 22.9789 191.675 22.9789H185.564C185.445 22.9792 185.331 23.0264 185.247 23.1102C185.163 23.194 185.116 23.3076 185.115 23.4262V30.2969H182.181C182.062 30.2975 181.949 30.345 181.866 30.4289C181.783 30.5127 181.737 30.6261 181.737 30.7442V35.9928C181.737 36.1109 181.783 36.2243 181.866 36.3083C181.949 36.3922 182.062 36.4398 182.181 36.4406H185.115V50.0232C185.115 55.5088 187.848 58.2918 193.241 58.2918C195.431 58.2918 197.247 57.8386 198.96 56.8671C199.03 56.8291 199.087 56.7731 199.127 56.705C199.167 56.6369 199.188 56.5592 199.187 56.4803V51.4801C199.187 51.4044 199.167 51.3301 199.13 51.2641C199.093 51.1982 199.039 51.1428 198.975 51.1033C198.91 51.062 198.836 51.0385 198.76 51.0351C198.684 51.0317 198.608 51.0485 198.54 51.0839C197.365 51.674 196.228 51.9473 194.954 51.9473C192.996 51.9473 192.118 51.0557 192.118 49.0651V36.4435H198.842C198.961 36.4429 199.074 36.3953 199.157 36.3114C199.24 36.2274 199.286 36.1139 199.286 35.9957V30.7472C199.288 30.6886 199.278 30.6302 199.257 30.5756C199.236 30.521 199.203 30.4713 199.162 30.4294C199.121 30.3875 199.072 30.3544 199.018 30.3321C198.964 30.3097 198.906 30.2986 198.847 30.2994L198.843 30.2969ZM222.267 30.3237V29.4796C222.267 26.9972 223.22 25.8903 225.353 25.8903C226.628 25.8903 227.651 26.1432 228.798 26.5251C228.865 26.5476 228.937 26.5538 229.007 26.5431C229.077 26.5323 229.143 26.505 229.2 26.4633C229.258 26.4217 229.304 26.3669 229.336 26.3037C229.368 26.2404 229.384 26.1704 229.383 26.0996L229.383 20.9537C229.384 20.8575 229.354 20.7636 229.297 20.6862C229.24 20.6088 229.159 20.5521 229.067 20.5247C227.859 20.1647 226.311 19.7957 223.989 19.7957C218.35 19.7957 215.363 22.972 215.363 28.9778V30.2701H212.428C212.31 30.2704 212.196 30.3175 212.112 30.4013C212.028 30.4851 211.98 30.5988 211.98 30.7174V35.9928C211.98 36.2392 212.183 36.4406 212.428 36.4406H215.363V57.3858C215.363 57.6357 215.567 57.8341 215.812 57.8341H221.918C222.168 57.8341 222.366 57.6357 222.366 57.3858V36.442H228.071L236.81 57.3858C235.819 59.5841 234.842 60.0225 233.511 60.0225C232.436 60.0225 231.299 59.7021 230.143 59.0654C230.033 59.01 229.907 58.9981 229.789 59.0322C229.73 59.0518 229.677 59.0833 229.631 59.1247C229.586 59.1661 229.549 59.2165 229.524 59.2727L227.453 63.8151C227.405 63.9183 227.399 64.0357 227.435 64.1435C227.471 64.2514 227.546 64.3414 227.646 64.3953C229.807 65.5651 231.756 66.065 234.168 66.065C238.679 66.065 241.175 63.9614 243.369 58.3106L253.968 30.9351C253.995 30.8674 254.005 30.7939 253.997 30.7213C253.989 30.6487 253.963 30.5793 253.921 30.5195C253.881 30.4596 253.827 30.4105 253.763 30.3766C253.7 30.3427 253.629 30.325 253.557 30.3251H247.196C247.103 30.3246 247.012 30.3533 246.936 30.4071C246.859 30.4609 246.802 30.5371 246.771 30.6252L240.255 49.2258L233.12 30.6128C233.088 30.5284 233.031 30.4558 232.957 30.4044C232.883 30.3531 232.795 30.3254 232.705 30.3251H222.267V30.3237ZM208.686 30.2969H202.575C202.457 30.2974 202.343 30.3447 202.259 30.4284C202.176 30.5122 202.128 30.6257 202.127 30.7442V57.3858C202.127 57.6357 202.33 57.8341 202.575 57.8341H208.686C208.932 57.8341 209.135 57.6357 209.135 57.3858V30.7462C209.135 30.6873 209.123 30.6289 209.101 30.5744C209.079 30.52 209.046 30.4705 209.004 30.4289C208.962 30.3873 208.913 30.3543 208.858 30.3319C208.804 30.3095 208.745 30.2981 208.686 30.2984V30.2969ZM205.666 18.1652C203.245 18.1652 201.283 20.124 201.283 22.543C201.283 23.1185 201.396 23.6883 201.616 24.2199C201.836 24.7516 202.159 25.2346 202.566 25.6415C202.973 26.0484 203.457 26.3712 203.989 26.5914C204.52 26.8115 205.09 26.9248 205.666 26.9248C208.087 26.9248 210.045 24.964 210.045 22.543C210.045 21.3821 209.583 20.2688 208.762 19.4479C207.941 18.627 206.827 18.1656 205.666 18.1652Z" fill="white"/>
</svg>
