<svg width="89" height="95" viewBox="0 0 89 95" fill="none" xmlns="http://www.w3.org/2000/svg">
<path d="M74.154 91.1885C68.4034 96.2018 62.1247 95.4102 56.0807 93.0355C49.6846 90.608 43.8166 90.5025 37.0684 93.0355C28.6186 96.3073 24.1589 95.3574 19.1124 91.1885C-9.52326 64.6446 -5.29832 24.2219 27.2102 22.7444C35.132 23.1138 40.6479 26.6494 45.2836 26.966C52.2078 25.6995 58.8386 22.0583 66.2323 22.5333C75.0929 23.1665 81.7824 26.3328 86.1834 32.0321C67.8753 41.9003 72.2176 63.5892 89 69.6579C85.6553 77.5735 81.313 85.4364 74.0954 91.2413L74.154 91.1885ZM44.6968 22.4277C43.8166 10.6598 54.4376 0.94988 66.643 0C68.3447 13.6149 52.912 23.747 44.6968 22.4277Z" fill="white"/>
</svg>
