<svg width="264" height="59" viewBox="0 0 264 59" fill="none" xmlns="http://www.w3.org/2000/svg">
<path d="M82.3865 9.2388C81.9032 7.45297 80.9605 5.8249 79.6523 4.51675C78.344 3.2086 76.7159 2.266 74.93 1.78284C68.3918 0 42.08 0 42.08 0C42.08 0 15.7672 0.0541034 9.22998 1.83694C7.44421 2.32018 5.81619 3.26281 4.50804 4.57096C3.1999 5.87911 2.25726 7.50713 1.77402 9.2929C-0.203588 20.9097 -0.970826 38.6097 1.82812 49.7612C2.31137 51.547 3.254 53.175 4.56215 54.4831C5.87029 55.7913 7.49831 56.7339 9.28408 57.2172C15.8218 59 42.1341 59 42.1341 59C42.1341 59 68.4464 59 74.9841 57.2172C76.7699 56.7339 78.3979 55.7913 79.7061 54.4831C81.0142 53.175 81.9569 51.547 82.4401 49.7612C84.5254 38.1285 85.1685 20.4392 82.386 9.23931L82.3865 9.2388Z" fill="white"/>
<path d="M33.7053 42.1428L55.5332 29.5001L33.7053 16.8569V42.1428Z" fill="#2D1600"/>
<path d="M253.12 17.1277C255.983 17.1277 258.144 17.6677 259.657 18.6941C261.17 19.7211 262.251 21.3416 262.899 23.5573C263.547 25.7724 263.817 28.7976 263.817 32.6879V39.0097H249.932V40.9543L250.148 46.3034C250.31 47.4921 250.581 48.3567 251.012 48.8967C251.445 49.4372 252.147 49.7072 253.066 49.7072C254.309 49.7072 255.173 49.2213 255.605 48.249C256.091 47.2762 256.307 45.6551 256.361 43.44L263.547 43.8723C263.602 44.1964 263.602 44.6287 263.602 45.1687C263.602 48.5726 262.683 51.1124 260.792 52.787C258.901 54.4616 256.307 55.3263 252.903 55.3263C248.797 55.3263 245.934 54.0298 244.313 51.4906C242.692 48.9508 241.828 44.9523 241.828 39.6038V33.0661C242.011 23.8814 243.627 17.1545 253.12 17.1277ZM153.219 17.83V44.8987C153.219 46.5198 153.381 47.7085 153.759 48.4108C154.527 49.9128 156.515 49.5289 157.595 48.789C158.219 48.3674 158.722 47.7901 159.054 47.1144V17.8295H167.321V54.7316H160.837L160.135 50.1931H159.973C158.19 53.597 155.542 55.3257 152.031 55.3257C146.625 55.3123 145.303 51.4179 144.988 47.4627L144.967 47.184C144.928 46.5849 144.905 45.9849 144.899 45.3846V17.83H153.219H153.219ZM195.849 17.83V44.8987C195.849 46.5198 196.01 47.7085 196.389 48.4108C197.156 49.9128 199.144 49.5289 200.225 48.789C200.849 48.3674 201.351 47.7901 201.684 47.1144V17.8295H209.95V54.7316H203.466L202.764 50.1931H202.602C200.819 53.597 198.171 55.3257 194.66 55.3257C189.255 55.3123 187.932 51.4179 187.617 47.4627L187.597 47.184C187.558 46.5849 187.535 45.9849 187.528 45.3846V17.83H195.849ZM129.23 17.1277C131.931 17.1277 134.147 17.6677 135.768 18.8023C137.388 19.937 138.631 21.6662 139.387 24.0432C140.144 26.4206 140.522 29.6081 140.522 33.5525V38.901C140.522 42.8454 140.144 45.9793 139.387 48.3562C138.631 50.7342 137.442 52.4629 135.768 53.5975C134.093 54.678 131.823 55.2721 129.014 55.2721C126.096 55.3263 123.827 54.7321 122.152 53.6516C120.477 52.517 119.288 50.7878 118.586 48.4108C117.884 46.0334 117.559 42.8995 117.559 38.9556V33.6061C117.559 29.6617 117.938 26.4201 118.748 24.0426C119.559 21.6116 120.801 19.8824 122.53 18.8023C124.259 17.7213 126.474 17.1272 129.23 17.1272V17.1277ZM222.917 2.32349V21.7739H222.971C223.728 20.3693 224.7 19.2347 226.051 18.37C227.313 17.5218 228.799 17.0703 230.319 17.0736C232.318 17.0736 233.831 17.6136 234.966 18.64C236.1 19.7211 236.911 21.3957 237.397 23.7191C237.868 25.9698 238.136 29.0825 238.153 33.0078L238.153 33.3907V39.2256C238.153 44.6823 237.451 48.7349 236.154 51.3283C234.804 53.9216 232.751 55.2186 229.941 55.2186C228.375 55.2186 226.969 54.8404 225.673 54.138C224.526 53.4698 223.576 52.5116 222.916 51.3597L222.809 51.166H222.647L221.783 54.678H214.921V2.324H222.917V2.32349ZM189.851 4.21453V10.9136H181.638V54.7316H173.534V10.9141H165.268V4.21504H189.851L189.851 4.21453ZM100.756 4.21453L100.761 4.23514C100.84 4.58604 101.932 9.44246 103.134 15.1006L103.229 15.5489L103.372 16.2265L103.468 16.6815L103.516 16.9098L103.612 17.3673L103.66 17.5966L103.755 18.0557L103.894 18.7271C104.706 22.6452 105.48 26.5747 105.943 29.3922H106.16C106.603 26.8648 107.248 23.6304 107.935 20.3281L108.116 19.4655C108.206 19.0337 108.297 18.6019 108.389 18.1711L108.53 17.5028C109.463 13.1266 110.425 8.75629 111.414 4.3923L111.429 4.32274L111.454 4.21453H119.721L110.157 38.3074V54.678H101.999V38.361H101.945L92.4895 4.21401L100.756 4.21453ZM129.068 22.8544C127.933 22.8544 127.176 23.4491 126.691 24.6919C126.204 25.9342 125.988 27.8252 125.988 30.4732V41.9813C125.988 44.6828 126.204 46.6816 126.636 47.8708C127.069 49.059 127.879 49.6536 129.068 49.6536C130.202 49.6536 131.013 49.059 131.499 47.8708C131.985 46.6816 132.201 44.6828 132.201 41.9813V30.4727C132.201 27.8252 131.985 25.8801 131.499 24.6914C131.013 23.4491 130.202 22.8544 129.068 22.8544ZM224.376 23.9355C223.718 24.5435 223.249 25.2932 222.97 26.2305L222.917 26.4206V47.3839C223.587 48.5185 224.538 49.2749 226.213 49.329C227.078 49.329 227.779 49.0049 228.32 48.3567C228.86 47.7085 229.239 46.6275 229.455 45.1146C229.662 43.6626 229.77 41.6623 229.779 39.1148V33.9848C229.779 31.0673 229.67 28.8522 229.509 27.2852C229.292 25.7183 229.023 24.5837 228.536 23.9355C227.596 22.5844 225.565 22.6009 224.376 23.9355ZM252.958 22.6926C252.039 22.7467 251.391 23.0167 251.012 23.5032C250.581 24.0432 250.31 24.8537 250.148 26.0424C249.989 27.2069 249.934 31.2776 249.932 31.4404V34.093H255.983V31.7537V31.7985C255.98 32.6162 255.963 31.3239 255.926 29.7374L255.92 29.5241C255.886 28.1298 255.837 26.5752 255.767 26.0424C255.605 24.7996 255.335 23.935 254.903 23.4491C254.47 22.9626 253.822 22.6926 252.958 22.6926H252.958Z" fill="white"/>
</svg>
