<svg width="148" height="84" viewBox="0 0 148 84" fill="none" xmlns="http://www.w3.org/2000/svg">
<path d="M64 47.161L63.1574 15.7245C63.1574 14.7472 62.3711 14 61.4721 14C60.5172 14 59.7868 14.7472 59.7868 15.7245L59 47.161L59.7868 62.2755C59.7868 63.2528 60.573 64 61.4721 64C62.427 64 63.1574 63.2528 63.1574 62.2755L64 47.161Z" fill="url(#paint0_linear_398_107)"/>
<path d="M58 47.2295L56.8411 14.6075C56.8414 14.3962 56.7923 14.187 56.6965 13.9918C56.6006 13.7966 56.46 13.6193 56.2826 13.4699C56.1053 13.3206 55.8947 13.2022 55.6629 13.1216C55.4311 13.0409 55.1827 12.9996 54.9319 13C54.681 12.9995 54.4325 13.0408 54.2005 13.1215C53.9686 13.2021 53.7579 13.3205 53.5804 13.4699C53.403 13.6193 53.2623 13.7968 53.1665 13.9921C53.0707 14.1874 53.0216 14.3967 53.022 14.608L52 47.1724L53.0227 62.3914C53.0222 62.6027 53.0712 62.812 53.1669 63.0074C53.2627 63.2027 53.4033 63.3802 53.5806 63.5297C53.758 63.6791 53.9687 63.7976 54.2006 63.8783C54.4325 63.959 54.681 64.0004 54.9319 64C55.1829 64.0005 55.4314 63.9592 55.6634 63.8785C55.8954 63.7978 56.1061 63.6793 56.2836 63.5299C56.461 63.3804 56.6017 63.2029 56.6975 63.0075C56.7933 62.8121 56.8423 62.6028 56.8418 62.3914L58 47.2295Z" fill="url(#paint1_linear_398_107)"/>
<path d="M43.8237 14.3921C43.7646 13.6378 43.1764 13 42.4123 13C41.6476 13 41.0588 13.5801 41.0004 14.3921L40 47.0581L41.0004 62.6655C41.0004 63.4198 41.6476 64 42.4117 64C43.1764 64 43.7652 63.4198 43.8237 62.6079L45 46.9998L43.8237 14.3921Z" fill="url(#paint2_linear_398_107)"/>
<path d="M49.9534 13.5007C49.9534 12.6924 49.2559 12 48.4416 12C48.2427 11.9986 48.0455 12.0365 47.8614 12.1114C47.6774 12.1864 47.5102 12.2968 47.3695 12.4365C47.2289 12.5761 47.1176 12.7421 47.0421 12.9248C46.9666 13.1075 46.9284 13.3032 46.9298 13.5007L46 47.0898L46.9298 62.4994C46.9298 63.3076 47.6279 64 48.4416 64C49.2559 64 49.8951 63.365 49.9534 62.4994L51 47.0898L49.9534 13.5007Z" fill="url(#paint3_linear_398_107)"/>
<path d="M18.924 63.9994C19.3291 63.9994 19.6331 63.6487 19.6834 63.1223L21 47.2632L19.6834 30.8783C19.6326 30.4095 19.3291 30 18.924 30C18.5189 30 18.2154 30.3513 18.1646 30.8777L17 47.2632L18.1646 63.1223C18.1646 63.6487 18.5189 63.9994 18.924 63.9994Z" fill="url(#paint4_linear_398_107)"/>
<path d="M70 47.229L69.2389 9.89586C69.2389 9.26391 68.9131 8.68961 68.4237 8.34481C68.152 8.1724 67.8263 8 67.4454 8C67.1197 8 66.7934 8.11532 66.4672 8.28772C65.9783 8.63195 65.652 9.20625 65.652 9.8382V10.183L65 47.1719L65.652 62.1624V62.22C65.652 62.6213 65.8151 63.0238 66.0869 63.311C66.4131 63.7129 66.902 64 67.4454 64C67.9349 64 68.3697 63.7705 68.6954 63.4834C69.0217 63.1386 69.2389 62.679 69.2389 62.1624L69.2934 60.669L70 47.229Z" fill="url(#paint5_linear_398_107)"/>
<path d="M25.7851 31.9892C25.7343 31.4072 25.38 31 24.924 31C24.4685 31 24.0634 31.4072 24.0634 31.9892L23 47.1223L24.0634 63.0108C24.1142 63.5928 24.4685 64 24.924 64C25.38 64 25.7851 63.5928 25.7851 63.0108L27 47.1217L25.7851 31.9892Z" fill="url(#paint6_linear_398_107)"/>
<path d="M30.4073 22C29.79 22 29.2347 22.4578 29.2347 23.0874L28 47.2917L29.234 62.9132C29.296 63.5427 29.7894 64 30.4067 64C31.024 64 31.58 63.5427 31.58 62.9132L33 47.2917L31.58 23.0874C31.58 22.5153 31.024 22 30.4067 22H30.4073Z" fill="url(#paint7_linear_398_107)"/>
<path d="M37.7499 62.7874L39 47.1342L37.7499 17.2086C37.6901 16.5182 37.1547 16 36.4405 16C35.7258 16 35.1904 16.5182 35.1306 17.2086L34 47.1342L35.1306 62.7874C35.1306 63.4778 35.7258 63.996 36.4405 63.996C37.1547 64.0538 37.6907 63.4778 37.7499 62.7874Z" fill="url(#paint8_linear_398_107)"/>
<path d="M75.0604 4.29013C74.7316 4.09947 74.3542 3.99909 73.9696 4.00001C73.4827 4.0034 73.0119 4.16705 72.6366 4.46339C72.1517 4.81108 71.8487 5.39016 71.8487 6.02739V6.25879L71 47.1466L71.4247 54.6759L71.8487 62.0308C71.8487 63.1314 72.8185 64 73.9696 64C75.1213 64 76.0302 63.0732 76.0911 61.9732L77 47.089L76.0911 6.02739C76.0302 5.27446 75.6664 4.63782 75.0604 4.29013Z" fill="url(#paint9_linear_398_107)"/>
<path d="M1.90191 56C2.22976 56 2.49177 55.7613 2.5576 55.4041L4 47.0595L2.5576 38.596C2.49177 38.2387 2.22976 38 1.90191 38C1.72811 38.0003 1.56154 38.0632 1.43865 38.1749C1.31576 38.2866 1.24656 38.438 1.24621 38.596L0 47.0595L1.24621 55.4041C1.24621 55.7613 1.57406 56 1.90191 56Z" fill="url(#paint10_linear_398_107)"/>
<path d="M6.8946 60.9994C7.15771 60.9994 7.42082 60.7639 7.47312 60.4106L9 47.1474L7.47312 33.59C7.42029 33.2361 7.21001 33 6.8946 33C6.63149 33 6.36838 33.2361 6.31555 33.59L5 47.1474L6.31555 60.4106C6.36838 60.7639 6.57866 60.9994 6.8946 60.9994Z" fill="url(#paint11_linear_398_107)"/>
<path d="M12.9218 63C13.2853 63 13.545 62.7153 13.5971 62.2598L15 47.2847L13.5971 31.7402C13.545 31.3418 13.2853 31 12.9218 31C12.5583 31 12.2986 31.2847 12.2464 31.7402L11 47.2847L12.2464 62.2598C12.2986 62.6582 12.5583 63 12.9218 63Z" fill="url(#paint12_linear_398_107)"/>
<path d="M129.639 27.7908C127.141 27.7908 124.759 28.31 122.551 29.1747C121.099 12.8575 107.271 0 90.4213 0C86.4251 0.00300876 82.4644 0.746015 78.7429 2.19087C77.3488 2.71008 77 3.28659 77 4.32443V61.9243C77 63.02 77.8714 63.8848 78.9756 64H129.698C139.807 64 148 55.9855 148 45.9533C147.942 35.921 139.749 27.7908 129.639 27.7908Z" fill="url(#paint13_linear_398_107)"/>
<path d="M14.0728 75.5187C11.9332 74.9962 11.3548 74.7635 11.3548 73.8922C11.3548 73.3113 11.8176 72.6722 13.2634 72.6722C14.478 72.6722 15.461 73.1953 16.3291 74.066L18.2951 72.1496C17.0223 70.8135 15.461 70 13.3789 70C10.7185 70 8.5783 71.5105 8.5783 73.9505C8.5783 76.6227 10.3138 77.4356 12.8006 77.9588C15.3455 78.5396 15.8082 78.9461 15.8082 79.8174C15.8082 80.863 15.0563 81.2695 13.437 81.2695C12.1642 81.2695 10.9496 80.8053 9.96658 79.7013L8 81.4439C9.04106 82.9543 11.0076 83.8839 13.2053 83.8839C16.9068 83.8839 18.4687 82.1414 18.4687 79.5853C18.5842 76.7387 16.2124 75.9835 14.0728 75.5187ZM26.508 70.0583C22.8065 70.0583 20.6663 72.9043 20.6663 77.0292C20.6663 81.1535 22.864 84 26.5074 84C30.1514 84 32.3491 81.154 32.3491 77.0292C32.3491 72.9049 30.1514 70.0583 26.508 70.0583ZM26.508 81.2701C24.3098 81.2701 23.4423 79.4109 23.4423 76.9708C23.4423 74.5314 24.3678 72.6727 26.508 72.6727C28.7057 72.6727 29.5737 74.5314 29.5737 76.9708C29.5737 79.4109 28.6476 81.2701 26.508 81.2701ZM43.2224 77.8427C43.2224 79.9918 42.1814 81.3278 40.4465 81.3278C38.7116 81.3278 37.6705 79.934 37.6705 77.7844V70.2321H34.952V77.8427C34.952 81.7926 37.1497 84 40.3884 84C43.8007 84 45.8254 81.7349 45.8254 77.8427V70.2904H43.1069V77.8427H43.2224ZM57.5081 75.9835C57.5081 76.7387 57.5662 78.4236 57.5662 78.9461C57.392 78.5979 56.9298 77.9004 56.6407 77.4356L51.8401 70.2904H49.2377V83.8262H51.8981V77.8427C51.8981 77.0875 51.8401 75.4027 51.8401 74.8801C52.0143 75.2283 52.4764 75.9252 52.7656 76.3906L57.6818 83.7679H60.1111V70.2321H57.4501V75.9835H57.5081ZM67.8607 70.2327H63.639V83.7679H67.6296C71.1 83.7679 74.5123 81.7349 74.5123 77.0292C74.5123 72.0336 71.6783 70.2327 67.8607 70.2327ZM67.6296 81.1535H66.2994V72.9049H67.7451C70.5792 72.9049 71.7938 74.2987 71.7938 77.0292C71.7938 79.4692 70.4636 81.1535 67.6296 81.1535ZM82.8408 72.7305C84.0555 72.7305 84.8068 73.253 85.3276 74.1826L87.8144 73.0209C86.947 71.2783 85.4432 70 82.8983 70C79.3704 70 76.9411 72.8465 76.9411 76.9708C76.9411 81.2118 79.3123 83.9423 82.8402 83.9423C85.2696 83.9423 86.8889 82.7806 87.8144 80.863L85.5587 79.5275C84.8649 80.747 84.113 81.2701 82.8983 81.2701C80.8742 81.2701 79.7176 79.4109 79.7176 76.9708C79.7176 74.473 80.8742 72.7305 82.8408 72.7305ZM92.8461 70.2327H90.1282V83.7679H98.225V81.0957H92.8461V70.2327ZM105.339 70.0577C101.637 70.0577 99.4978 72.9049 99.4978 77.0292C99.4978 81.1535 101.695 84 105.339 84C109.04 84 111.181 81.154 111.181 77.0292C111.181 72.9049 109.04 70.0583 105.339 70.0583L105.339 70.0577ZM105.339 81.2701C103.141 81.2701 102.273 79.4109 102.273 76.9708C102.273 74.5314 103.199 72.6727 105.339 72.6727C107.537 72.6727 108.405 74.5314 108.405 76.9708C108.405 79.4109 107.537 81.2701 105.339 81.2701ZM122.054 77.8427C122.054 79.9918 121.013 81.3278 119.278 81.3278C117.542 81.3278 116.501 79.934 116.501 77.7844V70.2321H113.783V77.8427C113.783 81.7926 115.981 84 119.22 84C122.632 84 124.656 81.7349 124.656 77.8427V70.2904H121.938V77.8427H122.054ZM132.348 70.2321H128.127V83.7679H132.117C135.588 83.7679 139 81.7349 139 77.0292C139 72.0336 136.166 70.2327 132.349 70.2327L132.348 70.2321ZM132.117 81.1535H130.845V72.9049H132.291C135.124 72.9049 136.282 74.2987 136.282 77.0292C136.282 79.4692 134.952 81.1535 132.117 81.1535Z" fill="url(#paint14_linear_398_107)"/>
<defs>
<linearGradient id="paint0_linear_398_107" x1="309.155" y1="-1294.3" x2="309.155" y2="5029.55" gradientUnits="userSpaceOnUse">
<stop stop-color="white"/>
<stop offset="0.2393" stop-color="white"/>
<stop offset="0.6262" stop-color="white"/>
<stop offset="1" stop-color="white"/>
</linearGradient>
<linearGradient id="paint1_linear_398_107" x1="352.186" y1="-1321.47" x2="352.186" y2="5128.86" gradientUnits="userSpaceOnUse">
<stop stop-color="white"/>
<stop offset="0.2393" stop-color="white"/>
<stop offset="0.6262" stop-color="white"/>
<stop offset="1" stop-color="white"/>
</linearGradient>
<linearGradient id="paint2_linear_398_107" x1="290.155" y1="-1321.47" x2="290.155" y2="5128.86" gradientUnits="userSpaceOnUse">
<stop stop-color="white"/>
<stop offset="0.2393" stop-color="white"/>
<stop offset="0.6262" stop-color="white"/>
<stop offset="1" stop-color="white"/>
</linearGradient>
<linearGradient id="paint3_linear_398_107" x1="296.155" y1="-1348.63" x2="296.155" y2="5228.17" gradientUnits="userSpaceOnUse">
<stop stop-color="white"/>
<stop offset="0.2393" stop-color="white"/>
<stop offset="0.6262" stop-color="white"/>
<stop offset="1" stop-color="white"/>
</linearGradient>
<linearGradient id="paint4_linear_398_107" x1="217.124" y1="-859.644" x2="217.124" y2="3440.57" gradientUnits="userSpaceOnUse">
<stop stop-color="white"/>
<stop offset="0.2393" stop-color="white"/>
<stop offset="0.6262" stop-color="white"/>
<stop offset="1" stop-color="white"/>
</linearGradient>
<linearGradient id="paint5_linear_398_107" x1="315.155" y1="-1457.3" x2="315.155" y2="5625.42" gradientUnits="userSpaceOnUse">
<stop stop-color="white"/>
<stop offset="0.2393" stop-color="white"/>
<stop offset="0.6262" stop-color="white"/>
<stop offset="1" stop-color="white"/>
</linearGradient>
<linearGradient id="paint6_linear_398_107" x1="223.124" y1="-832.478" x2="223.124" y2="3341.26" gradientUnits="userSpaceOnUse">
<stop stop-color="white"/>
<stop offset="0.2393" stop-color="white"/>
<stop offset="0.6262" stop-color="white"/>
<stop offset="1" stop-color="white"/>
</linearGradient>
<linearGradient id="paint7_linear_398_107" x1="278.155" y1="-1076.97" x2="278.155" y2="4235.06" gradientUnits="userSpaceOnUse">
<stop stop-color="white"/>
<stop offset="0.2393" stop-color="white"/>
<stop offset="0.6262" stop-color="white"/>
<stop offset="1" stop-color="white"/>
</linearGradient>
<linearGradient id="paint8_linear_398_107" x1="284.155" y1="-1239.97" x2="284.155" y2="4830.93" gradientUnits="userSpaceOnUse">
<stop stop-color="white"/>
<stop offset="0.2393" stop-color="white"/>
<stop offset="0.6262" stop-color="white"/>
<stop offset="1" stop-color="white"/>
</linearGradient>
<linearGradient id="paint9_linear_398_107" x1="371.186" y1="-1565.96" x2="371.186" y2="6022.66" gradientUnits="userSpaceOnUse">
<stop stop-color="white"/>
<stop offset="0.2393" stop-color="white"/>
<stop offset="0.6262" stop-color="white"/>
<stop offset="1" stop-color="white"/>
</linearGradient>
<linearGradient id="paint10_linear_398_107" x1="200.124" y1="-432.988" x2="200.124" y2="1843.6" gradientUnits="userSpaceOnUse">
<stop stop-color="white"/>
<stop offset="0.2393" stop-color="white"/>
<stop offset="0.6262" stop-color="white"/>
<stop offset="1" stop-color="white"/>
</linearGradient>
<linearGradient id="paint11_linear_398_107" x1="205.124" y1="-699.648" x2="205.124" y2="2841.71" gradientUnits="userSpaceOnUse">
<stop stop-color="white"/>
<stop offset="0.2393" stop-color="white"/>
<stop offset="0.6262" stop-color="white"/>
<stop offset="1" stop-color="white"/>
</linearGradient>
<linearGradient id="paint12_linear_398_107" x1="211.124" y1="-806.312" x2="211.124" y2="3240.95" gradientUnits="userSpaceOnUse">
<stop stop-color="white"/>
<stop offset="0.2393" stop-color="white"/>
<stop offset="0.6262" stop-color="white"/>
<stop offset="1" stop-color="white"/>
</linearGradient>
<linearGradient id="paint13_linear_398_107" x1="3629.2" y1="-1674.62" x2="3629.2" y2="6419.9" gradientUnits="userSpaceOnUse">
<stop stop-color="white"/>
<stop offset="0.2393" stop-color="white"/>
<stop offset="0.6262" stop-color="white"/>
<stop offset="1" stop-color="white"/>
</linearGradient>
<linearGradient id="paint14_linear_398_107" x1="6562.06" y1="-296.324" x2="6562.06" y2="1474.35" gradientUnits="userSpaceOnUse">
<stop stop-color="white"/>
<stop offset="0.2393" stop-color="white"/>
<stop offset="0.6262" stop-color="white"/>
<stop offset="1" stop-color="white"/>
</linearGradient>
</defs>
</svg>
