<svg width="81" height="203" viewBox="0 0 81 203" fill="none" xmlns="http://www.w3.org/2000/svg">
<g clip-path="url(#clip0_437_25)">
<g clip-path="url(#clip1_437_25)">
<path d="M78.4315 113.853C77.0579 110.258 75.078 107.07 72.5343 104.305C69.9905 101.473 66.8533 99.2603 63.22 97.6239C59.5698 95.9747 55.61 95.1522 51.2391 95.1522C50.2767 95.1607 49.5178 95.3048 47.8178 95.4999L43.6757 77.6302C60.6424 62.6053 65.1702 45.7234 65.1532 32.1654C65.1108 16.3349 60.9052 5.44357 54.3975 1.5008C52.6423 0.470589 50.4293 0.00423954 48.3011 0C46.3551 0.00423954 44.4855 0.385799 43.0525 1.3185C40.212 3.21357 37.7107 5.95655 35.5824 9.52624C33.4118 13.0832 31.7626 17.1956 30.6264 21.9311C29.4351 26.654 28.8119 31.7287 28.7653 37.1341C29.0366 45.3419 30.3721 53.3673 32.7801 61.2444C27.3408 66.1241 22.9953 70.1729 19.646 73.3398C16.1993 76.7017 12.8882 80.441 9.68735 84.5237C6.45258 88.6488 4.63381 93.0748 2.5946 97.7511C0.538419 102.415 0 107.392 0 112.551V112.611C0 118.19 0.47907 123.578 2.76418 128.695C5.08321 133.808 7.66509 138.845 11.8665 142.923C16.1187 147.01 20.7992 149.685 26.2639 151.928C31.8135 154.217 37.8506 155.324 44.0488 155.324C47.3599 155.324 50.4844 155.006 53.5539 154.391C54.0244 156.367 54.69 158.97 55.5846 162.171C56.636 165.999 57.4034 169.102 57.8909 171.392C58.3785 173.698 58.6371 175.992 58.6455 178.273C58.6455 181.69 58.2004 184.369 57.3525 186.158L57.3058 186.239L57.2804 186.324C56.8565 187.824 55.7966 189.342 54.0584 190.83C52.3371 192.314 50.3064 193.476 47.7966 194.383C45.3461 195.227 42.9126 195.697 40.5512 195.697C36.9773 195.684 34.3233 194.883 32.4113 193.361C35.5061 193.124 38.2152 192.009 40.3604 190.046C42.7981 187.854 44.07 185.026 44.0658 181.838C44.0658 179.451 43.3959 177.221 42.1834 175.241C40.9031 173.236 39.1988 171.672 37.1638 170.514L37.1553 170.502L37.1299 171.015C35.0483 169.9 32.7928 169.819 30.4357 169.819H30.4102H30.3636C27.6036 169.819 25.4372 170.192 21.1977 171.659V171.396C21.1977 172.778 18.8108 174.478 17.6195 176.7C16.4367 178.913 16.9582 181.113 16.9582 183.581V183.64V183.708C16.9582 189.266 19.4383 193.768 24.2374 196.965C28.956 200.081 34.3063 202.086 40.6657 202.086C45.1553 202.082 49.6026 201.196 53.4012 199.432C57.2253 197.681 60.9264 194.875 63.2624 191.593C65.0091 189.028 66.6498 183.962 66.6667 178.421C66.6667 176.492 66.4336 174.508 65.9206 172.57C65.3991 170.086 61.9015 156.435 60.9646 152.288C67.5825 149.948 71.75 146.34 75.1289 141.63C78.707 136.666 80.5088 131.087 80.5004 125.049C80.5004 121.149 79.75 117.414 78.4315 113.853ZM38.194 34.0774C41.3397 20.5618 48.3816 18.3233 51.1288 18.2936C52.6932 18.3021 53.787 19.0059 54.6137 19.9725C55.4404 20.9221 55.8983 22.177 55.9704 22.8045L55.9789 22.8808L55.9958 22.9486C56.246 23.911 56.3519 25.0642 56.3519 26.23C56.3519 28.9391 55.7711 31.9195 54.5289 35.0652C53.2868 38.3 51.5994 41.4839 49.4797 44.6339C48.4791 46.1304 46.0414 49.1405 43.6757 51.8496C42.4929 53.202 41.3058 54.4908 40.318 55.4871C40.0424 55.7754 39.7711 56.0425 39.521 56.2799C38.7875 52.5618 37.7658 44.8925 37.7701 39.1733C37.7743 37.1299 37.9057 35.3196 38.194 34.0774ZM45.0366 148.702C34.7897 148.732 23.822 144.674 19.2475 140.575C16.1357 137.76 13.6895 135.496 12.2607 132.346C10.7599 129.124 9.96291 125.774 9.85269 122.328C10.0816 114.523 12.7695 107.332 18.0265 100.638C23.0546 94.1898 29.469 88.0298 37.3376 82.086L40.6021 96.9922C35.5824 98.9254 30.6434 102.067 27.3789 106.366C23.9619 110.864 21.1977 115.845 21.1977 121.153V121.217C21.1977 126.194 23.8728 130.641 27.2602 134.457C30.6391 138.239 35.4298 140.787 40.7038 141.965L41.1405 142.025L41.4712 141.969C42.0053 141.859 42.4717 141.728 42.8533 141.529C43.1924 141.346 43.7393 140.96 43.7648 140.202C43.7817 139.595 43.5189 138.938 43.0398 138.523C42.5946 138.116 42.0435 137.895 41.4288 137.76C38.4908 136.598 36.3074 134.843 34.8405 132.426C33.2931 129.921 32.5469 127.627 32.5512 125.732C32.5554 122.578 33.7891 119.674 36.4728 116.918C38.8681 114.497 41.3906 112.852 44.1251 111.958L52.2481 147.968C49.946 148.473 47.5125 148.702 45.0366 148.702ZM72.0722 128.153C72.0722 133.35 71.0123 137.649 68.99 141.088C66.9677 144.539 63.6228 147.044 59.1628 148.63L57.9206 149.054L48.9328 111.072L48.5894 110.465H49.9884C54.1389 110.465 56.92 110.588 60.0997 112.212C63.3684 113.878 65.9884 115.816 67.9089 118.716C69.9058 121.59 71.3048 124.634 71.8263 128.182L72.0722 128.072V128.153Z" fill="#FF851B"/>
</g>
</g>
<defs>
<clipPath id="clip0_437_25">
<rect width="80.5004" height="202.086" fill="white"/>
</clipPath>
<clipPath id="clip1_437_25">
<rect width="80.5004" height="202.086" fill="white"/>
</clipPath>
</defs>
</svg>
